<svg xmlns="http://www.w3.org/2000/svg" xmlns:xlink="http://www.w3.org/1999/xlink" viewBox="0 0 2615.62 1634.07"><defs><style>.cls-1{fill:url(#radial-gradient);}.cls-2{fill:url(#radial-gradient-2);}.cls-3{fill:url(#radial-gradient-3);}.cls-4{fill:url(#radial-gradient-4);}.cls-5{fill:url(#radial-gradient-5);}.cls-6{fill:url(#radial-gradient-6);}.cls-7{fill:url(#radial-gradient-7);}.cls-8{fill:url(#radial-gradient-8);}.cls-9{fill:url(#radial-gradient-9);}.cls-10{fill:url(#radial-gradient-10);}.cls-11{fill:url(#radial-gradient-11);}.cls-12{fill:none;}.cls-13{isolation:isolate;}.cls-14{opacity:0.8;}.cls-15{clip-path:url(#clip-path);}.cls-16{fill:url(#radial-gradient-12);}.cls-17{mask:url(#mask);}.cls-18,.cls-21,.cls-49{fill:#fff;}.cls-18,.cls-28,.cls-61{opacity:0.75;}.cls-18,.cls-49,.cls-53{mix-blend-mode:screen;}.cls-19,.cls-56{opacity:0.3;}.cls-20{fill:url(#linear-gradient);}.cls-22{fill:url(#linear-gradient-2);}.cls-23{fill:url(#linear-gradient-3);}.cls-24{fill:url(#linear-gradient-4);}.cls-25{fill:url(#linear-gradient-5);}.cls-26{fill:url(#linear-gradient-6);}.cls-27{mask:url(#mask-2);}.cls-28,.cls-32{fill:#4b5663;mix-blend-mode:multiply;}.cls-29{mask:url(#mask-3);}.cls-30{mask:url(#mask-4);}.cls-31{mask:url(#mask-5);}.cls-32{opacity:0.15;}.cls-33{mask:url(#mask-6);}.cls-34{fill:url(#linear-gradient-7);}.cls-35{fill:url(#linear-gradient-8);}.cls-36{fill:url(#linear-gradient-9);}.cls-37{fill:url(#linear-gradient-10);}.cls-38{fill:url(#linear-gradient-11);}.cls-39{fill:url(#linear-gradient-12);}.cls-40{fill:url(#linear-gradient-13);}.cls-41{fill:url(#linear-gradient-14);}.cls-42{fill:url(#linear-gradient-15);}.cls-43{fill:url(#linear-gradient-16);}.cls-44{fill:url(#linear-gradient-17);}.cls-45{fill:url(#linear-gradient-18);}.cls-46{fill:url(#linear-gradient-19);}.cls-47{mask:url(#mask-7);}.cls-48{mask:url(#mask-8);}.cls-49,.cls-59{opacity:0.4;}.cls-50{mask:url(#mask-9);}.cls-51{mask:url(#mask-10);}.cls-52{mask:url(#mask-11);}.cls-54{opacity:0.1;}.cls-55{opacity:0.2;}.cls-57{opacity:0.05;}.cls-58{opacity:0.6;}.cls-60{opacity:0.5;}</style><radialGradient id="radial-gradient" cx="484.96" cy="1604.59" r="117.11" gradientTransform="translate(-1265.38 -4122.82) scale(3.44 3.13)" gradientUnits="userSpaceOnUse"><stop offset="0" stop-color="#fff"/><stop offset="0.14" stop-color="#cacaca"/><stop offset="0.31" stop-color="#8e8e8e"/><stop offset="0.48" stop-color="#5b5b5b"/><stop offset="0.64" stop-color="#343434"/><stop offset="0.78" stop-color="#171717"/><stop offset="0.91" stop-color="#060606"/><stop offset="1"/></radialGradient><radialGradient id="radial-gradient-2" cx="554.31" cy="1095.67" r="52.31" gradientTransform="matrix(-4.93, 0, 0, 0.38, 4386.05, 632.06)" xlink:href="#radial-gradient"/><radialGradient id="radial-gradient-3" cx="989.39" cy="1311.4" r="105.79" gradientTransform="matrix(3.44, -0.1, 0.11, 3.13, -1411.61, -4045.31)" xlink:href="#radial-gradient"/><radialGradient id="radial-gradient-4" cx="573.67" cy="1358.59" r="52.3" gradientTransform="matrix(-2.28, 0, 0, 0.15, 2952.47, 852.85)" xlink:href="#radial-gradient"/><radialGradient id="radial-gradient-5" cx="621.07" cy="1494.35" r="52.3" gradientTransform="matrix(-1.75, 0, 0, 0.11, 2670.16, 885.41)" xlink:href="#radial-gradient"/><radialGradient id="radial-gradient-6" cx="748.74" cy="1147.44" r="52.31" gradientTransform="matrix(-2.58, 0, 0, 0.28, 3272.96, 723.3)" xlink:href="#radial-gradient"/><radialGradient id="radial-gradient-7" cx="548.28" cy="1147.44" r="52.31" gradientTransform="matrix(-2.58, 0, 0, 0.28, 3272.96, 723.3)" xlink:href="#radial-gradient"/><radialGradient id="radial-gradient-8" cx="514.35" cy="1446.32" r="30.14" gradientTransform="matrix(3.43, -0.28, 0.31, 3.12, -1713.44, -3878.59)" xlink:href="#radial-gradient"/><radialGradient id="radial-gradient-9" cx="852.51" cy="1325.59" r="117.11" gradientTransform="matrix(3.44, -0.1, 0.11, 3.13, -1411.61, -4045.31)" xlink:href="#radial-gradient"/><radialGradient id="radial-gradient-10" cx="698.67" cy="1399.5" r="67.12" gradientTransform="matrix(3.44, -0.1, 0.11, 3.13, -1411.61, -4045.31)" xlink:href="#radial-gradient"/><radialGradient id="radial-gradient-11" cx="972.52" cy="1446.08" r="68.23" gradientTransform="matrix(3.44, -0.1, 0.11, 3.13, -1411.61, -4045.31)" xlink:href="#radial-gradient"/><clipPath id="clip-path" transform="translate(121.31 370.89)"><rect class="cls-12" x="0.23" y="-0.57" width="1920" height="1080"/></clipPath><radialGradient id="radial-gradient-12" cx="662.88" cy="686.65" r="1087.71" gradientTransform="matrix(-1.28, 0, 0, 1.08, 2462.62, 333.98)" gradientUnits="userSpaceOnUse"><stop offset="0" stop-color="#e7ebef"/><stop offset="1" stop-color="#68c0f9"/></radialGradient><mask id="mask" x="121.75" y="901.34" width="806" height="732.73" maskUnits="userSpaceOnUse"><g transform="translate(121.31 370.89)"><ellipse class="cls-1" cx="403.44" cy="896.82" rx="403" ry="366.36"/></g></mask><linearGradient id="linear-gradient" x1="317.8" y1="493.54" x2="503.76" y2="493.54" gradientTransform="matrix(-1, 0, 0, 1, 2102.3, 0)" gradientUnits="userSpaceOnUse"><stop offset="0" stop-color="#bcc6d1"/><stop offset="1" stop-color="#fff"/></linearGradient><linearGradient id="linear-gradient-2" x1="506.26" y1="458.74" x2="540.33" y2="424.67" gradientTransform="matrix(-1, 0, 0, 1, 2223.61, 370.89)" gradientUnits="userSpaceOnUse"><stop offset="0" stop-color="#a3b7cf"/><stop offset="1" stop-color="#fff"/></linearGradient><linearGradient id="linear-gradient-3" x1="484.52" y1="330.08" x2="472.42" y2="376.3" gradientTransform="matrix(-0.97, -0.25, -0.25, 0.97, 2275.41, 585.57)" gradientUnits="userSpaceOnUse"><stop offset="0" stop-color="#bac4d4"/><stop offset="1" stop-color="#8296b0"/></linearGradient><linearGradient id="linear-gradient-4" x1="374.55" y1="728.91" x2="365.89" y2="757.94" gradientTransform="translate(1402.88)" gradientUnits="userSpaceOnUse"><stop offset="0" stop-color="#cbd6e2"/><stop offset="1" stop-color="#fff"/></linearGradient><linearGradient id="linear-gradient-5" x1="236.62" y1="754.06" x2="236.62" y2="703.8" gradientTransform="matrix(-1, 0, 0, 1, 2223.61, 370.89)" gradientUnits="userSpaceOnUse"><stop offset="0" stop-color="#a3b7cf"/><stop offset="1" stop-color="#e2e7ec"/></linearGradient><linearGradient id="linear-gradient-6" x1="459.41" y1="763.81" x2="424.55" y2="728.95" gradientTransform="translate(1524.19 370.89)" gradientUnits="userSpaceOnUse"><stop offset="0" stop-color="#5d6d82"/><stop offset="1" stop-color="#bac4d4"/></linearGradient><mask id="mask-2" x="1518.64" y="1396.88" width="515.43" height="39.5" maskUnits="userSpaceOnUse"><g transform="translate(121.31 370.89)"><ellipse class="cls-2" cx="1655.04" cy="1045.74" rx="257.71" ry="19.75"/></g></mask><mask id="mask-3" x="1647.98" y="1413.98" width="238.28" height="15.23" maskUnits="userSpaceOnUse"><g transform="translate(121.31 370.89)"><ellipse class="cls-4" cx="1645.82" cy="1050.71" rx="119.14" ry="7.62"/></g></mask><mask id="mask-4" x="1612.36" y="1415.81" width="183.19" height="11.57" maskUnits="userSpaceOnUse"><g transform="translate(121.31 370.89)"><path class="cls-5" d="M1491.05,1050.71c0,3.19,41,5.78,91.59,5.78s91.6-2.59,91.6-5.78-41-5.79-91.6-5.79S1491.05,1047.51,1491.05,1050.71Z"/></g></mask><mask id="mask-5" x="1329.02" y="1403.49" width="269.72" height="29.55" maskUnits="userSpaceOnUse"><g transform="translate(121.31 370.89)"><ellipse class="cls-6" cx="1342.57" cy="1047.37" rx="134.86" ry="14.77"/></g></mask><mask id="mask-6" x="1845.84" y="1403.49" width="269.72" height="29.55" maskUnits="userSpaceOnUse"><g transform="translate(121.31 370.89)"><ellipse class="cls-7" cx="1859.39" cy="1047.37" rx="134.86" ry="14.77"/></g></mask><linearGradient id="linear-gradient-7" x1="418.98" y1="816.65" x2="564.79" y2="816.65" gradientTransform="matrix(-1, 0, 0, 1, 2102.3, 0)" xlink:href="#linear-gradient-4"/><linearGradient id="linear-gradient-8" x1="696.91" y1="800.9" x2="689.49" y2="823.01" gradientTransform="matrix(-1, 0, 0, 1, 2102.3, 0)" xlink:href="#linear-gradient-4"/><linearGradient id="linear-gradient-9" x1="763.67" y1="805.94" x2="763.67" y2="749.11" xlink:href="#linear-gradient-2"/><linearGradient id="linear-gradient-10" x1="796.08" y1="816" x2="824.17" y2="777.1" gradientTransform="matrix(-1, 0, 0, 1, 2223.61, 370.89)" xlink:href="#linear-gradient-4"/><linearGradient id="linear-gradient-11" x1="722.73" y1="824.06" x2="816.96" y2="824.06" gradientTransform="matrix(-1, 0, 0, 1, 2223.61, 370.89)" gradientUnits="userSpaceOnUse"><stop offset="0" stop-color="#57667a"/><stop offset="1" stop-color="#bac4d4"/></linearGradient><linearGradient id="linear-gradient-12" x1="454.79" y1="752.07" x2="553.8" y2="653.07" xlink:href="#linear-gradient-11"/><linearGradient id="linear-gradient-13" x1="445.52" y1="721.84" x2="445.52" y2="570.56" xlink:href="#linear-gradient-5"/><linearGradient id="linear-gradient-14" x1="487.94" y1="675.19" x2="548.37" y2="573.35" gradientTransform="matrix(-1, 0, 0, 1, 2223.61, 370.89)" gradientUnits="userSpaceOnUse"><stop offset="0" stop-color="#d8e1eb"/><stop offset="1" stop-color="#fff"/></linearGradient><linearGradient id="linear-gradient-15" x1="520.57" y1="896.87" x2="520.57" y2="1027.21" gradientTransform="matrix(-1, 0, 0, 1, 2223.61, 370.89)" gradientUnits="userSpaceOnUse"><stop offset="0" stop-color="#bac4d4"/><stop offset="1" stop-color="#57667a"/></linearGradient><linearGradient id="linear-gradient-16" x1="423.3" y1="1026.82" x2="423.3" y2="791.01" xlink:href="#linear-gradient-5"/><linearGradient id="linear-gradient-17" x1="397.75" y1="643.02" x2="442.11" y2="686.62" gradientTransform="matrix(-1, 0, 0, 1, 2102.3, 0)" gradientUnits="userSpaceOnUse"><stop offset="0" stop-color="#fff"/><stop offset="1" stop-color="#bec8d4"/></linearGradient><linearGradient id="linear-gradient-18" x1="281.16" y1="575.22" x2="281.16" y2="510.26" xlink:href="#linear-gradient-5"/><linearGradient id="linear-gradient-19" x1="290.14" y1="579.48" x2="339.38" y2="530.24" gradientTransform="matrix(-1, 0, 0, 1, 2223.61, 370.89)" gradientUnits="userSpaceOnUse"><stop offset="0" stop-color="#8296b0"/><stop offset="1" stop-color="#bac4d4"/></linearGradient><mask id="mask-7" x="514.37" y="759.54" width="207.44" height="188.58" maskUnits="userSpaceOnUse"><g transform="translate(121.31 370.89)"><ellipse class="cls-8" cx="496.79" cy="482.95" rx="103.72" ry="94.29"/></g></mask><mask id="mask-8" x="1379.27" y="22.12" width="806.01" height="732.73" maskUnits="userSpaceOnUse"><g transform="translate(121.31 370.89)"><ellipse class="cls-9" cx="1660.97" cy="17.6" rx="403" ry="366.36"/></g></mask><mask id="mask-9" x="1029.94" y="424.41" width="461.98" height="419.98" maskUnits="userSpaceOnUse"><g transform="translate(121.31 370.89)"><ellipse class="cls-10" cx="1139.62" cy="263.51" rx="230.99" ry="209.99"/></g></mask><mask id="mask-10" x="1972.98" y="540.24" width="469.62" height="426.92" maskUnits="userSpaceOnUse"><g transform="translate(121.31 370.89)"><ellipse class="cls-11" cx="2086.48" cy="382.82" rx="234.81" ry="213.46"/></g></mask><mask id="mask-11" x="1887.52" y="0" width="728.1" height="661.91" maskUnits="userSpaceOnUse"><g transform="translate(121.31 370.89)"><ellipse class="cls-3" cx="2130.26" cy="-39.93" rx="364.05" ry="330.95"/></g></mask></defs><title>entrust-2-bg-new</title><g class="cls-13"><g id="Layer_1_copy" data-name="Layer 1 copy"><rect class="cls-12" x="122.35" y="369.02" width="1920" height="1080"/><g class="cls-14"><g class="cls-15"><rect class="cls-16" x="120.66" y="370.32" width="1921.85" height="1080"/><g class="cls-17"><ellipse class="cls-18" cx="524.75" cy="1267.71" rx="403" ry="366.36"/></g><path class="cls-19" d="M194.09,718.5c0,.44.56.79,1.26.79s1.26-.35,1.26-.79-.57-.8-1.26-.8S194.09,718.06,194.09,718.5Z" transform="translate(121.31 370.89)"/><path class="cls-20" d="M1720.6,554.62c18.67,0,39.76-3.82,63.5-11.45a.54.54,0,0,0,.37-.7.62.62,0,0,0-.77-.33c-52.76,17-92.33,15-121-6-24.7-18.12-37.16-47.05-48.15-72.58-5-11.48-9.62-22.33-14.89-30.78a.64.64,0,0,0-.82-.21.53.53,0,0,0-.23.75c5.24,8.38,9.89,19.19,14.82,30.64,11,25.65,23.57,54.73,48.52,73C1678,548.74,1697.44,554.62,1720.6,554.62Z" transform="translate(121.31 370.89)"/><g class="cls-13"><polygon class="cls-21" points="1708.91 782.33 1682.14 796.69 1702.94 798.32 1731.36 782.12 1708.91 782.33"/><polygon class="cls-22" points="1682.14 796.69 1695.7 824.88 1717.08 829.89 1702.94 798.32 1682.14 796.69"/><polygon class="cls-23" points="1702.94 798.32 1717.08 829.89 1743.13 812.21 1731.36 782.12 1702.94 798.32"/></g><path class="cls-24" d="M1743.41,846.12c-20.3,0-44.07-3.29-71.58-9.86a.55.55,0,0,1-.43-.67.61.61,0,0,1,.73-.39c57.13,13.65,98,13.09,124.94-1.72,28.85-15.85,36.17-44.73,42.63-70.22,1.4-5.53,2.72-10.75,4.22-15.6a.61.61,0,0,1,.74-.38.53.53,0,0,1,.41.67c-1.48,4.83-2.81,10-4.2,15.56-6.19,24.42-13.89,54.81-43.18,70.91C1783.5,842.22,1765.51,846.12,1743.41,846.12Z" transform="translate(121.31 370.89)"/><g class="cls-13"><polygon class="cls-21" points="1972.13 1101 1938.98 1109.59 1947.47 1083.28 1980.62 1074.68 1972.13 1101"/><polygon class="cls-25" points="1993.36 1124.94 1972.13 1101 1980.62 1074.68 2001.85 1098.63 1993.36 1124.94"/><polygon class="cls-26" points="1960.21 1133.54 1938.98 1109.59 1972.13 1101 1993.36 1124.94 1960.21 1133.54"/></g><g class="cls-27"><ellipse class="cls-28" cx="1776.35" cy="1416.63" rx="257.71" ry="19.75"/></g><g class="cls-29"><ellipse class="cls-28" cx="1767.13" cy="1421.59" rx="119.14" ry="7.62"/></g><g class="cls-30"><path class="cls-28" d="M1491.05,1050.71c0,3.19,41,5.78,91.59,5.78s91.6-2.59,91.6-5.78-41-5.79-91.6-5.79S1491.05,1047.51,1491.05,1050.71Z" transform="translate(121.31 370.89)"/></g><g class="cls-31"><ellipse class="cls-32" cx="1463.88" cy="1418.26" rx="134.86" ry="14.77"/></g><g class="cls-33"><ellipse class="cls-32" cx="1980.7" cy="1418.26" rx="134.86" ry="14.77"/></g><path class="cls-34" d="M1677.9,946.89a.89.89,0,0,0,.81-.47c15.53-29.45-10.52-42.33-43.5-58.65-54.43-26.93-129-63.81-79.86-200.28a.82.82,0,0,0-.58-1,.93.93,0,0,0-1.14.53c-21.93,61-21.49,107.62,1.36,142.64,19.57,30,52.72,46.41,79.36,59.59,33.4,16.52,57.53,28.46,42.74,56.51a.8.8,0,0,0,.42,1.09A1.09,1.09,0,0,0,1677.9,946.89Z" transform="translate(121.31 370.89)"/><path class="cls-35" d="M1470.07,933.66q26,0,55.47-8a.52.52,0,0,0,.4-.67.6.6,0,0,0-.74-.37c-44.9,12.27-83.85,10.42-115.79-5.49-23.88-11.9-56.09-38.07-73.91-95.18a.6.6,0,0,0-.74-.38.53.53,0,0,0-.41.67c17.93,57.48,50.4,83.85,74.49,95.85C1427.06,929.12,1447.54,933.66,1470.07,933.66Z" transform="translate(121.31 370.89)"/><g class="cls-13"><polygon class="cls-36" points="1436.62 1171.71 1500.88 1176.82 1483.27 1125.11 1419 1119.99 1436.62 1171.71"/><polygon class="cls-37" points="1406.65 1213.07 1436.62 1171.71 1419 1119.99 1389.04 1161.35 1406.65 1213.07"/><polygon class="cls-38" points="1470.91 1218.18 1500.88 1176.82 1436.62 1171.71 1406.65 1213.07 1470.91 1218.18"/></g><g class="cls-13"><polygon class="cls-39" points="1790.17 1092.72 1736.65 1044.83 1631.52 1037.26 1691.93 1082.49 1790.17 1092.72"/><polygon class="cls-40" points="1790.17 1092.72 1819.53 997.65 1772.49 941.44 1736.65 1044.83 1790.17 1092.72"/><polygon class="cls-41" points="1736.65 1044.83 1772.49 941.44 1670.23 942.09 1631.52 1037.26 1736.65 1044.83"/></g><g class="cls-13"><polygon class="cls-21" points="1704.81 1187.53 1600.52 1283.07 1698.49 1267.75 1807.95 1161.9 1704.81 1187.53"/><polygon class="cls-42" points="1600.52 1283.07 1700.39 1398.1 1805.56 1397.71 1698.49 1267.75 1600.52 1283.07"/><polygon class="cls-43" points="1698.49 1267.75 1805.56 1397.71 1902.12 1287.68 1807.95 1161.9 1698.49 1267.75"/></g><path class="cls-44" d="M1676.19,683a56.79,56.79,0,0,0,20.13-3.52c28.36-10.67,41.87-43.44,54.93-75.14,10-24.33,19.49-47.32,34.91-57.67a.51.51,0,0,0,.12-.76.63.63,0,0,0-.84-.12c-15.7,10.55-25.23,33.68-35.32,58.16-13,31.49-26.38,64-54.26,74.52-15.75,5.92-34.46,4.21-57.2-5.23a.62.62,0,0,0-.8.27.53.53,0,0,0,.3.72C1652.27,680.12,1664.86,683,1676.19,683Z" transform="translate(121.31 370.89)"/><g class="cls-13"><polygon class="cls-45" points="1918.74 915.09 1937.73 946.11 1966.16 912.17 1947.18 881.15 1918.74 915.09"/><polygon class="cls-21" points="1879.97 905.39 1918.74 915.09 1947.18 881.15 1908.41 871.45 1879.97 905.39"/><polygon class="cls-46" points="1898.95 936.41 1937.73 946.11 1918.74 915.09 1879.97 905.39 1898.95 936.41"/></g><g class="cls-47"><ellipse class="cls-18" cx="618.1" cy="853.84" rx="103.72" ry="94.29"/></g><g class="cls-48"><ellipse class="cls-49" cx="1782.28" cy="388.49" rx="403" ry="366.36"/></g><g class="cls-50"><ellipse class="cls-49" cx="1260.93" cy="634.4" rx="230.99" ry="209.99"/></g><g class="cls-51"><ellipse class="cls-49" cx="2207.79" cy="753.71" rx="234.81" ry="213.46"/></g><g class="cls-52"><ellipse class="cls-49" cx="2251.57" cy="330.96" rx="364.05" ry="330.95"/></g><g class="cls-53"><g class="cls-54"><polygon class="cls-21" points="718.56 796.64 627.77 768.38 596.36 867.76 718.56 796.64"/></g><g class="cls-55"><polygon class="cls-21" points="1571.23 822.63 1571.26 849.76 1527.4 827.17 1571.23 822.63"/></g><g class="cls-55"><polygon class="cls-21" points="1259.23 801.83 1238.38 744.85 1176.64 786.38 1259.23 801.83"/></g><g class="cls-56"><polygon class="cls-21" points="331.03 967.65 331.39 966.6 241.75 937.06 241.39 938.11 331.03 967.65"/></g><polygon class="cls-21" points="1668.92 939.05 1669.96 938.65 1616.41 800.75 1615.36 801.15 1668.92 939.05"/><g class="cls-56"><polygon class="cls-21" points="1615.55 801.39 1616.21 800.5 1517.07 729.18 1516.4 730.08 1615.55 801.39"/></g><g class="cls-54"><path class="cls-21" d="M758.2,210.83c2.44-4.45,50.09-83.94,50.09-83.94l-110.47,47Z" transform="translate(121.31 370.89)"/></g><g class="cls-57"><polygon class="cls-21" points="721.81 614.48 645.54 526.76 618.51 603.55 721.81 614.48"/></g><g class="cls-57"><polygon class="cls-21" points="542.16 481.3 429.91 579.97 446.65 505.94 542.16 481.3"/></g><g class="cls-55"><polygon class="cls-21" points="279.95 565.39 200.69 629.48 242.51 536.36 279.95 565.39"/></g><g class="cls-54"><polygon class="cls-21" points="383.98 779.28 314.39 860.69 202.63 763.97 383.98 779.28"/></g><g class="cls-55"><polygon class="cls-21" points="1120.51 601.68 1079.62 522.45 1016.88 615.86 1120.51 601.68"/></g><g class="cls-55"><polygon class="cls-21" points="876.3 742.66 826.85 670.89 788.05 734.5 876.3 742.66"/></g><g class="cls-54"><polygon class="cls-21" points="580.72 680.93 515.79 679.41 618.51 603.55 580.72 680.93"/></g><g class="cls-54"><polygon class="cls-21" points="380.17 512.38 395.28 449.24 289.78 431.12 380.17 512.38"/></g><path class="cls-21" d="M661.13,363.48a5.61,5.61,0,0,1,5.77-5.4,5.55,5.55,0,0,1,5.45,5.66,5.61,5.61,0,0,1-5.76,5.4A5.55,5.55,0,0,1,661.13,363.48Z" transform="translate(121.31 370.89)"/><path class="cls-21" d="M744.55,215a11.2,11.2,0,0,1,11.52-10.8A11.08,11.08,0,0,1,767,215.53a11.2,11.2,0,0,1-11.52,10.8A11.07,11.07,0,0,1,744.55,215Z" transform="translate(121.31 370.89)"/><path class="cls-21" d="M1229.46,443.93a7.91,7.91,0,0,1,8.15-7.63,7.83,7.83,0,0,1,7.71,8,7.92,7.92,0,0,1-8.15,7.63A7.84,7.84,0,0,1,1229.46,443.93Z" transform="translate(121.31 370.89)"/><path class="cls-21" d="M262.76,78.09a11.21,11.21,0,0,1,11.52-10.8,11.07,11.07,0,1,1-11.52,10.8Z" transform="translate(121.31 370.89)"/><path class="cls-21" d="M594.9,243.47a5.61,5.61,0,1,1,5.45,5.66A5.59,5.59,0,0,1,594.9,243.47Z" transform="translate(121.31 370.89)"/><path class="cls-21" d="M257.06,408.27a5.61,5.61,0,0,1,5.76-5.41,5.56,5.56,0,0,1,5.46,5.67,5.61,5.61,0,0,1-5.76,5.4A5.55,5.55,0,0,1,257.06,408.27Z" transform="translate(121.31 370.89)"/><path class="cls-21" d="M303,209a5.61,5.61,0,0,1,5.76-5.4,5.54,5.54,0,0,1,5.45,5.67A5.61,5.61,0,0,1,303,209Z" transform="translate(121.31 370.89)"/><path class="cls-21" d="M72.34,392.87a9,9,0,0,1,9.22-8.64,8.87,8.87,0,0,1,8.73,9.06,9,9,0,0,1-18-.42Z" transform="translate(121.31 370.89)"/><path class="cls-21" d="M520.87,155.8a3.36,3.36,0,0,1,3.46-3.24,3.32,3.32,0,0,1,3.27,3.4,3.37,3.37,0,0,1-3.46,3.24A3.33,3.33,0,0,1,520.87,155.8Z" transform="translate(121.31 370.89)"/><path class="cls-21" d="M253.25,141.36A5.61,5.61,0,0,1,259,136a5.55,5.55,0,0,1,5.46,5.66A5.62,5.62,0,0,1,258.7,147,5.55,5.55,0,0,1,253.25,141.36Z" transform="translate(121.31 370.89)"/><path class="cls-21" d="M496.54,227.17a5.54,5.54,0,1,1-4.91,6.17A5.57,5.57,0,0,1,496.54,227.17Z" transform="translate(121.31 370.89)"/><ellipse class="cls-21" cx="564.45" cy="312.5" rx="7.85" ry="7.74" transform="translate(85.13 447.79) rotate(-7.55)"/><path class="cls-21" d="M827.91,288.55a3.32,3.32,0,1,1-2.94,3.7A3.35,3.35,0,0,1,827.91,288.55Z" transform="translate(121.31 370.89)"/><path class="cls-21" d="M807.63,121.4a5.53,5.53,0,1,1-4.91,6.17A5.56,5.56,0,0,1,807.63,121.4Z" transform="translate(121.31 370.89)"/><ellipse class="cls-21" cx="1117.07" cy="373.96" rx="5.61" ry="5.53" transform="translate(81.78 521.28) rotate(-7.57)"/><path class="cls-21" d="M1405.42,450.79a5.54,5.54,0,1,1-4.9,6.17A5.58,5.58,0,0,1,1405.42,450.79Z" transform="translate(121.31 370.89)"/><path class="cls-21" d="M406.37,407.1a5.6,5.6,0,0,1,5.76-5.4,5.53,5.53,0,1,1-5.76,5.4Z" transform="translate(121.31 370.89)"/><path class="cls-21" d="M114.65,566.57a5.59,5.59,0,0,1,5.76-5.4,5.53,5.53,0,0,1,5.45,5.66,5.61,5.61,0,0,1-11.21-.26Z" transform="translate(121.31 370.89)"/><path class="cls-21" d="M308,312a3.37,3.37,0,0,1,3.46-3.24A3.32,3.32,0,1,1,308,312Z" transform="translate(121.31 370.89)"/><path class="cls-21" d="M153,194.37a5.61,5.61,0,1,1,5.45,5.66A5.53,5.53,0,0,1,153,194.37Z" transform="translate(121.31 370.89)"/><path class="cls-21" d="M952.7,151.43a5.61,5.61,0,0,1,5.76-5.4,5.56,5.56,0,0,1,5.46,5.67,5.61,5.61,0,0,1-5.76,5.4A5.55,5.55,0,0,1,952.7,151.43Z" transform="translate(121.31 370.89)"/><path class="cls-21" d="M1088,272.18a5.6,5.6,0,0,1,5.76-5.4,5.54,5.54,0,0,1,5.45,5.67,5.6,5.6,0,0,1-5.76,5.4A5.54,5.54,0,0,1,1088,272.18Z" transform="translate(121.31 370.89)"/><path class="cls-21" d="M1323.27,392.93a5.6,5.6,0,0,1,5.76-5.4,5.54,5.54,0,0,1,5.46,5.66,5.61,5.61,0,0,1-5.76,5.4A5.55,5.55,0,0,1,1323.27,392.93Z" transform="translate(121.31 370.89)"/><path class="cls-21" d="M1542.52,567.83a5.61,5.61,0,0,1,5.76-5.4,5.55,5.55,0,0,1,5.46,5.67,5.61,5.61,0,0,1-5.76,5.4A5.56,5.56,0,0,1,1542.52,567.83Z" transform="translate(121.31 370.89)"/><path class="cls-21" d="M1020,300.19a3.37,3.37,0,0,1,3.46-3.24,3.32,3.32,0,0,1,3.27,3.4,3.37,3.37,0,0,1-3.46,3.24A3.32,3.32,0,0,1,1020,300.19Z" transform="translate(121.31 370.89)"/><path class="cls-21" d="M1282.11,506.25a3.36,3.36,0,0,1,3.46-3.24,3.32,3.32,0,0,1,3.27,3.4,3.37,3.37,0,0,1-3.46,3.24A3.33,3.33,0,0,1,1282.11,506.25Z" transform="translate(121.31 370.89)"/><path class="cls-21" d="M1446.56,451.67a3.36,3.36,0,1,1,3.27,3.4A3.34,3.34,0,0,1,1446.56,451.67Z" transform="translate(121.31 370.89)"/><path class="cls-21" d="M993.59,230.66a5.61,5.61,0,0,1,5.76-5.4,5.53,5.53,0,1,1-5.76,5.4Z" transform="translate(121.31 370.89)"/><path class="cls-21" d="M942.83,321.36a7.84,7.84,0,0,1,8.06-7.56,7.75,7.75,0,1,1-8.06,7.56Z" transform="translate(121.31 370.89)"/><path class="cls-21" d="M890,244.84a5.6,5.6,0,0,1,5.76-5.4,5.53,5.53,0,1,1-5.76,5.4Z" transform="translate(121.31 370.89)"/><path class="cls-21" d="M692.21,173.78a5.6,5.6,0,0,1,5.76-5.4,5.54,5.54,0,0,1,5.45,5.67,5.61,5.61,0,0,1-11.21-.27Z" transform="translate(121.31 370.89)"/><path class="cls-21" d="M699.93,299.88a5.59,5.59,0,0,1,5.76-5.4,5.53,5.53,0,0,1,5.45,5.66,5.6,5.6,0,0,1-5.76,5.4A5.54,5.54,0,0,1,699.93,299.88Z" transform="translate(121.31 370.89)"/><path class="cls-21" d="M500.86,397.37a5.61,5.61,0,1,1,5.45,5.66A5.59,5.59,0,0,1,500.86,397.37Z" transform="translate(121.31 370.89)"/><path class="cls-21" d="M317.34,516.26a3.36,3.36,0,0,1,3.45-3.24,3.32,3.32,0,0,1,3.27,3.4,3.36,3.36,0,0,1-6.72-.16Z" transform="translate(121.31 370.89)"/><path class="cls-21" d="M593.89,425.68a3.37,3.37,0,1,1,3.27,3.4A3.36,3.36,0,0,1,593.89,425.68Z" transform="translate(121.31 370.89)"/><path class="cls-21" d="M855.4,389.24a3.36,3.36,0,1,1,3.27,3.4A3.31,3.31,0,0,1,855.4,389.24Z" transform="translate(121.31 370.89)"/><path class="cls-21" d="M369.08-4.5a3.37,3.37,0,0,1,3.46-3.24,3.34,3.34,0,0,1,3.27,3.4,3.37,3.37,0,0,1-3.46,3.24A3.32,3.32,0,0,1,369.08-4.5Z" transform="translate(121.31 370.89)"/><path class="cls-21" d="M79.3-61.86a3.37,3.37,0,0,1,3.46-3.25A3.33,3.33,0,0,1,86-61.71a3.35,3.35,0,0,1-3.45,3.24A3.32,3.32,0,0,1,79.3-61.86Z" transform="translate(121.31 370.89)"/><path class="cls-21" d="M660.72,61.18a3.36,3.36,0,0,1,3.46-3.24,3.32,3.32,0,0,1,3.27,3.39,3.37,3.37,0,0,1-6.73-.15Z" transform="translate(121.31 370.89)"/><path class="cls-21" d="M902.27,111.6a3.37,3.37,0,0,1,3.46-3.24,3.32,3.32,0,0,1,3.27,3.4,3.37,3.37,0,0,1-6.73-.16Z" transform="translate(121.31 370.89)"/><path class="cls-21" d="M1154.14,336.7a3.36,3.36,0,1,1,3.27,3.4A3.31,3.31,0,0,1,1154.14,336.7Z" transform="translate(121.31 370.89)"/><path class="cls-21" d="M538.5,546.9a3.36,3.36,0,0,1,3.46-3.24,3.32,3.32,0,0,1,3.27,3.4,3.37,3.37,0,0,1-6.73-.16Z" transform="translate(121.31 370.89)"/><path class="cls-21" d="M531.07,39a3.36,3.36,0,1,1,3.27,3.4A3.32,3.32,0,0,1,531.07,39Z" transform="translate(121.31 370.89)"/><path class="cls-21" d="M910.54,487.16a3.37,3.37,0,1,1,3.27,3.4A3.35,3.35,0,0,1,910.54,487.16Z" transform="translate(121.31 370.89)"/><path class="cls-21" d="M1190.88,318.81a3.37,3.37,0,0,1,3.46-3.24,3.33,3.33,0,0,1,3.27,3.4,3.37,3.37,0,0,1-3.46,3.24A3.32,3.32,0,0,1,1190.88,318.81Z" transform="translate(121.31 370.89)"/><path class="cls-21" d="M1333,534.58a3.36,3.36,0,1,1,3.27,3.4A3.31,3.31,0,0,1,1333,534.58Z" transform="translate(121.31 370.89)"/><path class="cls-21" d="M108.78,639.78a3.36,3.36,0,1,1,3.27,3.39A3.34,3.34,0,0,1,108.78,639.78Z" transform="translate(121.31 370.89)"/><path class="cls-21" d="M264.35-41a3.35,3.35,0,0,1,3.45-3.24,3.32,3.32,0,0,1,3.28,3.39,3.35,3.35,0,0,1-3.46,3.24A3.32,3.32,0,0,1,264.35-41Z" transform="translate(121.31 370.89)"/><path class="cls-21" d="M206.54,596.16a3.36,3.36,0,0,1,3.45-3.24,3.33,3.33,0,0,1,3.28,3.4,3.37,3.37,0,0,1-3.46,3.24A3.33,3.33,0,0,1,206.54,596.16Z" transform="translate(121.31 370.89)"/><path class="cls-21" d="M374.85,619.78a2.23,2.23,0,0,1,2.3-2.16,2.21,2.21,0,0,1,2.18,2.26A2.23,2.23,0,0,1,377,622,2.21,2.21,0,0,1,374.85,619.78Z" transform="translate(121.31 370.89)"/><path class="cls-21" d="M1099.92,89.8a2.25,2.25,0,1,1,2.18,2.27A2.24,2.24,0,0,1,1099.92,89.8Z" transform="translate(121.31 370.89)"/><path class="cls-21" d="M47.7,602.71A2.26,2.26,0,0,1,50,600.55a2.22,2.22,0,0,1,2.18,2.27A2.25,2.25,0,0,1,49.88,605,2.22,2.22,0,0,1,47.7,602.71Z" transform="translate(121.31 370.89)"/><path class="cls-21" d="M86.74,101.42a2.25,2.25,0,0,1,2.31-2.16,2.21,2.21,0,0,1,2.18,2.26,2.25,2.25,0,0,1-4.49-.1Z" transform="translate(121.31 370.89)"/><path class="cls-21" d="M798.8,574.88a2.25,2.25,0,0,1,2.31-2.16,2.22,2.22,0,0,1,2.18,2.27,2.25,2.25,0,0,1-4.49-.11Z" transform="translate(121.31 370.89)"/><path class="cls-21" d="M189.27,373.65a2.24,2.24,0,1,1,2.18,2.27A2.23,2.23,0,0,1,189.27,373.65Z" transform="translate(121.31 370.89)"/><path class="cls-21" d="M767.1,460.79a2.25,2.25,0,1,1,2.18,2.26A2.21,2.21,0,0,1,767.1,460.79Z" transform="translate(121.31 370.89)"/><path class="cls-21" d="M1466.65,368.59a2.23,2.23,0,0,1,2.3-2.16,2.21,2.21,0,1,1-2.3,2.16Z" transform="translate(121.31 370.89)"/><path class="cls-21" d="M1431.18,514.42a2.24,2.24,0,1,1,2.18,2.26A2.23,2.23,0,0,1,1431.18,514.42Z" transform="translate(121.31 370.89)"/><path class="cls-21" d="M1447.93,478.43a2.25,2.25,0,1,1,2.18,2.27A2.24,2.24,0,0,1,1447.93,478.43Z" transform="translate(121.31 370.89)"/><path class="cls-21" d="M1133.37,430.68a4.52,4.52,0,0,1,4.65-4.36,4.47,4.47,0,0,1,4.4,4.57,4.53,4.53,0,0,1-4.65,4.36A4.47,4.47,0,0,1,1133.37,430.68Z" transform="translate(121.31 370.89)"/><path class="cls-21" d="M1239.6,405.86a2.23,2.23,0,0,1,2.3-2.16,2.21,2.21,0,0,1,2.18,2.27,2.24,2.24,0,0,1-2.3,2.16A2.22,2.22,0,0,1,1239.6,405.86Z" transform="translate(121.31 370.89)"/><path class="cls-21" d="M1382.47,411.76a3.3,3.3,0,1,1,3.2,3.33A3.25,3.25,0,0,1,1382.47,411.76Z" transform="translate(121.31 370.89)"/><path class="cls-21" d="M956.34,379.13a2.24,2.24,0,1,1,2.18,2.27A2.21,2.21,0,0,1,956.34,379.13Z" transform="translate(121.31 370.89)"/><path class="cls-21" d="M235.39,583.19a1.13,1.13,0,0,1,1.16-1.08,1.11,1.11,0,1,1-1.16,1.08Z" transform="translate(121.31 370.89)"/><path class="cls-21" d="M674.74,537.41a1.12,1.12,0,0,1,1.15-1.08,1.11,1.11,0,1,1-1.15,1.08Z" transform="translate(121.31 370.89)"/><path class="cls-21" d="M705.65,425.93a1.12,1.12,0,1,1,1.09,1.13A1.1,1.1,0,0,1,705.65,425.93Z" transform="translate(121.31 370.89)"/><path class="cls-21" d="M951.12,552.31a1.12,1.12,0,0,1,1.15-1.08,1.1,1.1,0,0,1,1.09,1.13,1.12,1.12,0,0,1-1.15,1.08A1.1,1.1,0,0,1,951.12,552.31Z" transform="translate(121.31 370.89)"/><path class="cls-21" d="M1028.41,399.4a1.12,1.12,0,0,1,1.15-1.08,1.11,1.11,0,1,1-1.15,1.08Z" transform="translate(121.31 370.89)"/><path class="cls-21" d="M1038.53,485.23a1.12,1.12,0,0,1,1.15-1.08,1.11,1.11,0,1,1-1.15,1.08Z" transform="translate(121.31 370.89)"/><path class="cls-21" d="M1152.65,556.73a1.13,1.13,0,1,1,1.09,1.14A1.13,1.13,0,0,1,1152.65,556.73Z" transform="translate(121.31 370.89)"/><path class="cls-21" d="M1416,611.7a1.12,1.12,0,1,1,1.09,1.13A1.1,1.1,0,0,1,1416,611.7Z" transform="translate(121.31 370.89)"/><path class="cls-21" d="M1278,573.49a1.13,1.13,0,0,1,1.16-1.08,1.11,1.11,0,0,1,1.09,1.13,1.13,1.13,0,0,1-1.16,1.08A1.11,1.11,0,0,1,1278,573.49Z" transform="translate(121.31 370.89)"/><path class="cls-21" d="M1621.66,439a1.13,1.13,0,0,1,2.25.05,1.13,1.13,0,0,1-1.16,1.08A1.11,1.11,0,0,1,1621.66,439Z" transform="translate(121.31 370.89)"/><path class="cls-21" d="M1582.1,486.7a1.12,1.12,0,0,1,1.15-1.08,1.1,1.1,0,0,1,1.09,1.13,1.12,1.12,0,0,1-1.15,1.08A1.1,1.1,0,0,1,1582.1,486.7Z" transform="translate(121.31 370.89)"/><path class="cls-21" d="M1564,533.14a1.12,1.12,0,0,1,1.15-1.08,1.11,1.11,0,1,1-1.15,1.08Z" transform="translate(121.31 370.89)"/><path class="cls-21" d="M1553.41,309.51a1.12,1.12,0,0,1,1.15-1.08,1.11,1.11,0,1,1-1.15,1.08Z" transform="translate(121.31 370.89)"/><path class="cls-21" d="M975.21,421.51a1.12,1.12,0,0,1,1.15-1.08,1.11,1.11,0,1,1-1.15,1.08Z" transform="translate(121.31 370.89)"/><path class="cls-21" d="M563,478.17a1.13,1.13,0,0,1,1.16-1.08,1.11,1.11,0,1,1-.07,2.21A1.11,1.11,0,0,1,563,478.17Z" transform="translate(121.31 370.89)"/><path class="cls-21" d="M355.14,542.15a1.12,1.12,0,1,1,1.09,1.13A1.11,1.11,0,0,1,355.14,542.15Z" transform="translate(121.31 370.89)"/><path class="cls-21" d="M423.66,528.29a1.12,1.12,0,0,1,1.15-1.08,1.1,1.1,0,0,1,1.09,1.13,1.12,1.12,0,0,1-1.15,1.08A1.11,1.11,0,0,1,423.66,528.29Z" transform="translate(121.31 370.89)"/><path class="cls-21" d="M505.35,610.51a1.13,1.13,0,1,1,1.09,1.14A1.12,1.12,0,0,1,505.35,610.51Z" transform="translate(121.31 370.89)"/><path class="cls-21" d="M130.48,669.46a1.12,1.12,0,0,1,1.15-1.08,1.1,1.1,0,0,1,1.09,1.13,1.12,1.12,0,0,1-1.15,1.08A1.1,1.1,0,0,1,130.48,669.46Z" transform="translate(121.31 370.89)"/><path class="cls-21" d="M398,268.74a1.12,1.12,0,0,1,1.15-1.08,1.11,1.11,0,1,1-1.15,1.08Z" transform="translate(121.31 370.89)"/><path class="cls-21" d="M154.21,615.48a1.13,1.13,0,1,1,1.09,1.13A1.12,1.12,0,0,1,154.21,615.48Z" transform="translate(121.31 370.89)"/><path class="cls-21" d="M259.82,687.32a1.12,1.12,0,1,1,1.09,1.13A1.11,1.11,0,0,1,259.82,687.32Z" transform="translate(121.31 370.89)"/><path class="cls-21" d="M447.7-3.08a1.12,1.12,0,0,1,1.15-1.08A1.11,1.11,0,0,1,449.94-3a1.12,1.12,0,0,1-1.15,1.08A1.1,1.1,0,0,1,447.7-3.08Z" transform="translate(121.31 370.89)"/><path class="cls-21" d="M354.76-80.07a1.12,1.12,0,0,1,1.15-1.08A1.1,1.1,0,0,1,357-80a1.12,1.12,0,0,1-1.15,1.08A1.1,1.1,0,0,1,354.76-80.07Z" transform="translate(121.31 370.89)"/><path class="cls-21" d="M864.06,410.21a1.13,1.13,0,0,1,1.15-1.08,1.11,1.11,0,1,1-1.15,1.08Z" transform="translate(121.31 370.89)"/><path class="cls-21" d="M1266.28,370.28a1.12,1.12,0,1,1,1.09,1.13A1.1,1.1,0,0,1,1266.28,370.28Z" transform="translate(121.31 370.89)"/><path class="cls-21" d="M1544.66,416.15a1.13,1.13,0,1,1,1.09,1.14A1.13,1.13,0,0,1,1544.66,416.15Z" transform="translate(121.31 370.89)"/><path class="cls-21" d="M1471.52,562.91a1.13,1.13,0,0,1,1.16-1.08,1.11,1.11,0,0,1,1.09,1.13,1.13,1.13,0,0,1-2.25-.05Z" transform="translate(121.31 370.89)"/><path class="cls-21" d="M588.55,37.18a1.13,1.13,0,1,1,1.09,1.14A1.13,1.13,0,0,1,588.55,37.18Z" transform="translate(121.31 370.89)"/><path class="cls-21" d="M721-8.43a1.12,1.12,0,0,1,1.15-1.08,1.12,1.12,0,0,1,1.09,1.14,1.12,1.12,0,0,1-1.15,1.08A1.12,1.12,0,0,1,721-8.43Z" transform="translate(121.31 370.89)"/><path class="cls-21" d="M698.33,98.05A1.13,1.13,0,0,1,699.49,97a1.11,1.11,0,0,1,1.09,1.13,1.13,1.13,0,0,1-1.16,1.08A1.11,1.11,0,0,1,698.33,98.05Z" transform="translate(121.31 370.89)"/><path class="cls-21" d="M817.2,68.16a1.12,1.12,0,0,1,2.24,0,1.12,1.12,0,0,1-1.15,1.08A1.11,1.11,0,0,1,817.2,68.16Z" transform="translate(121.31 370.89)"/><path class="cls-21" d="M956.42,41.86A1.12,1.12,0,1,1,957.51,43,1.1,1.1,0,0,1,956.42,41.86Z" transform="translate(121.31 370.89)"/><path class="cls-21" d="M1045.66,175.35a1.09,1.09,0,0,1-.66-1.42,1.13,1.13,0,0,1,1.44-.66,1.1,1.1,0,0,1,.66,1.42A1.12,1.12,0,0,1,1045.66,175.35Z" transform="translate(121.31 370.89)"/><path class="cls-21" d="M1084.71,307.89a1.09,1.09,0,0,1-.66-1.42,1.13,1.13,0,0,1,1.44-.66,1.1,1.1,0,0,1,.66,1.42A1.12,1.12,0,0,1,1084.71,307.89Z" transform="translate(121.31 370.89)"/><path class="cls-21" d="M1187.15,206.06a1.1,1.1,0,0,1-.67-1.42,1.13,1.13,0,0,1,1.44-.66,1.11,1.11,0,0,1,.67,1.42A1.13,1.13,0,0,1,1187.15,206.06Z" transform="translate(121.31 370.89)"/><path class="cls-21" d="M1305,295.85a1.09,1.09,0,0,1-.66-1.42,1.13,1.13,0,0,1,1.44-.66,1.1,1.1,0,0,1,.66,1.42A1.12,1.12,0,0,1,1305,295.85Z" transform="translate(121.31 370.89)"/><path class="cls-21" d="M113.11,31.6a1.1,1.1,0,0,1-.67-1.42,1.13,1.13,0,0,1,1.44-.66,1.11,1.11,0,0,1,.67,1.42A1.13,1.13,0,0,1,113.11,31.6Z" transform="translate(121.31 370.89)"/><path class="cls-21" d="M172.75-103.52a1.1,1.1,0,0,1-.67-1.42,1.13,1.13,0,0,1,1.44-.66,1.11,1.11,0,0,1,.67,1.42A1.13,1.13,0,0,1,172.75-103.52Z" transform="translate(121.31 370.89)"/><path class="cls-21" d="M655.38,424.52a2.24,2.24,0,1,1,2.18,2.26A2.23,2.23,0,0,1,655.38,424.52Z" transform="translate(121.31 370.89)"/><path class="cls-21" d="M327.65,448.35a3.37,3.37,0,0,1,3.46-3.24,3.32,3.32,0,0,1,3.27,3.4,3.37,3.37,0,0,1-3.46,3.24A3.33,3.33,0,0,1,327.65,448.35Z" transform="translate(121.31 370.89)"/><path class="cls-21" d="M471.68,496.8a3.36,3.36,0,0,1,3.46-3.24,3.32,3.32,0,0,1,3.27,3.39,3.37,3.37,0,0,1-6.73-.15Z" transform="translate(121.31 370.89)"/><path class="cls-21" d="M1392.09,359.26a3.37,3.37,0,0,1,3.46-3.24,3.32,3.32,0,1,1-3.46,3.24Z" transform="translate(121.31 370.89)"/><path class="cls-21" d="M1183,502.08a3.34,3.34,0,0,1,3.45-3.24,3.31,3.31,0,0,1,3.27,3.39,3.36,3.36,0,0,1-6.72-.15Z" transform="translate(121.31 370.89)"/><path class="cls-21" d="M1491.17,429.21a3.37,3.37,0,1,1,3.27,3.4A3.36,3.36,0,0,1,1491.17,429.21Z" transform="translate(121.31 370.89)"/><path class="cls-21" d="M1488,491.67a3.37,3.37,0,0,1,3.46-3.24,3.33,3.33,0,0,1,3.27,3.4,3.37,3.37,0,0,1-3.46,3.24A3.32,3.32,0,0,1,1488,491.67Z" transform="translate(121.31 370.89)"/><path class="cls-21" d="M751.62,371.69a3.37,3.37,0,0,1,3.46-3.24,3.32,3.32,0,1,1-3.46,3.24Z" transform="translate(121.31 370.89)"/><path class="cls-21" d="M1052,415.42a3.37,3.37,0,1,1,3.27,3.4A3.35,3.35,0,0,1,1052,415.42Z" transform="translate(121.31 370.89)"/><ellipse class="cls-21" cx="618.37" cy="124.16" rx="3.37" ry="3.32" transform="translate(110.34 453.47) rotate(-7.57)"/><path class="cls-21" d="M324.94,131.76a3.32,3.32,0,1,1-2.94,3.7A3.33,3.33,0,0,1,324.94,131.76Z" transform="translate(121.31 370.89)"/><path class="cls-21" d="M27.84,559.28a3.32,3.32,0,1,1-2.95,3.7A3.35,3.35,0,0,1,27.84,559.28Z" transform="translate(121.31 370.89)"/><path class="cls-21" d="M29,464.77a5.59,5.59,0,0,1,5.76-5.4A5.53,5.53,0,0,1,40.22,465,5.61,5.61,0,0,1,29,464.77Z" transform="translate(121.31 370.89)"/><path class="cls-21" d="M73.77,258.46a5.61,5.61,0,0,1,5.76-5.4A5.56,5.56,0,0,1,85,258.73a5.61,5.61,0,0,1-5.76,5.4A5.56,5.56,0,0,1,73.77,258.46Z" transform="translate(121.31 370.89)"/><path class="cls-21" d="M415.24,110.28a5.61,5.61,0,0,1,5.76-5.4,5.55,5.55,0,0,1,5.46,5.66,5.61,5.61,0,0,1-5.76,5.4A5.55,5.55,0,0,1,415.24,110.28Z" transform="translate(121.31 370.89)"/><path class="cls-21" d="M388.87,308.39a5.62,5.62,0,0,1,5.77-5.4,5.53,5.53,0,1,1-5.77,5.4Z" transform="translate(121.31 370.89)"/><path class="cls-21" d="M493.36,70.15a5.61,5.61,0,0,1,5.76-5.4,5.53,5.53,0,1,1-5.76,5.4Z" transform="translate(121.31 370.89)"/><path class="cls-21" d="M162.86,60.1a5.6,5.6,0,0,1,5.76-5.4,5.54,5.54,0,0,1,5.45,5.67,5.61,5.61,0,0,1-11.21-.27Z" transform="translate(121.31 370.89)"/><path class="cls-21" d="M219.46,3.51a5.6,5.6,0,0,1,5.76-5.4,5.54,5.54,0,0,1,5.46,5.66,5.61,5.61,0,0,1-5.76,5.4A5.55,5.55,0,0,1,219.46,3.51Z" transform="translate(121.31 370.89)"/><path class="cls-21" d="M187.48,489.67a5.61,5.61,0,1,1,5.45,5.66A5.53,5.53,0,0,1,187.48,489.67Z" transform="translate(121.31 370.89)"/><path class="cls-21" d="M156.22,281.61a5.61,5.61,0,0,1,5.76-5.4,5.55,5.55,0,0,1,5.46,5.66,5.61,5.61,0,0,1-5.76,5.4A5.55,5.55,0,0,1,156.22,281.61Z" transform="translate(121.31 370.89)"/><g class="cls-56"><path class="cls-21" d="M34.24,465.31-120.86,325l-.45-.4L168.09,59.83l2-1.82L79.94,258.71l1.93,134.11L138,441.37l23.3-159.71.11-.76,97,48.67L276.3,286.1,157.62,194.42l101-53.41.23-.12,192.49,73.62L419.13,106.59l79.43,127.19L453,216.36,481,310l31.33.74L523.77,154.5l77.09,88.66,78.17,42,18.23-111.31.13-.81L758.93,209l49.72-83.76,14.73,121.39,49.34,28.81,125.69-44.9-42-81.35L1094,271.9l.13.12L1118,375.38l-94.73-74.5L950.6,322.15l-78-45.54-44.77,16-5.5-45.34-63-36.79L706,300.28l-.28.47-25.86-13.89L667.29,363.7l-.12.75L564.3,313.05l-51-1.19-6.52,88.73-26.69-89.51-85.45-2-70.54,53.45,88.73,44.52L320.6,517.33,262.17,408.66l-.22-.42L322,362.73l-63-31.62L193.6,490l-.29.72-54.52-47.18-18,123.23-.18,1.23Zm46.52-72L78.82,258.61v-.13l88-196L-119.66,324.6,35.05,464.54l84.83,100.85,17.9-122.71Zm242.37-30.05-59.74,45.27,57.41,106.8,90.3-107.94Zm-160.85-80.7L139,442.24l53.88,46.63L258,330.6ZM960.2,154,1000,231.1l-126,45L950.75,321l72.74-21.29,92.68,72.88-23.09-99.93ZM481.29,311.11l24.84,83.3,6.07-82.58Zm118.94-67-.09,0L524.7,157.26,513.41,310.75l51.05,1.2h.13l101.72,50.82,12.53-76.47ZM479.78,310l-28.07-94.11L258.89,142.1l-99.22,52.49L276.74,285l32.35-78.61,2.84,107.2-34.71-26.81-17.81,43.26L323,362l71.13-53.9.16-.12ZM698.24,174.81,680.07,285.7l25.26,13.56,53-89.35ZM823.55,248l5.23,43.12,42.57-15.21ZM277.66,285.74l33.09,25.56-2.64-99.55ZM759.9,209.52l62.26,36.35L807.94,128.59ZM452.63,215l43.22,16.53L422.57,114.23Z" transform="translate(121.31 370.89)"/></g><path class="cls-21" d="M998.25,229.77,1095,272.34,1023,301Zm1.9,2,23.55,67.72,68.45-27.25Z" transform="translate(121.31 370.89)"/><rect class="cls-21" x="895.09" y="237.33" width="104.59" height="1.11" transform="translate(97.81 501.53) rotate(-7.79)"/><g class="cls-56"><polygon class="cls-21" points="1177.47 787.29 1145.22 671.01 1144.13 671.3 1175.81 785.48 1079.97 749.51 1079.84 749.52 980.47 759.61 950.23 664.01 949.16 664.34 979.67 760.8 980.13 760.76 1079.81 750.64 1177.47 787.29"/></g><g class="cls-58"><path class="cls-21" d="M394,308.77l-86.38-100L524.1,155.34l.19-.05L646.53,210l51-36.52,110.53-47.05.16-.06,151,24.84-63,93.8,54.36,75.53,48.09-90,1,.51-49,91.55-55.63-77.31-.22-.31,62.47-93-149-24.51L698.09,174.4l-50.38,36.08,182.86,81.77-2,.13L755.4,372.14l-.19.21L667,364.19l-.32.53-.27-.48L505.22,398.33,564,312.25l35.68-68.19-102.09-10.8L411.72,409ZM600.35,243l45.14-32.33L524.18,156.46,309.61,209.4l85.3,98.76.1.12,17.22,97.16,84.47-173,.17-.35Zm.17,1.75-35.61,68L507.7,396.67l158.19-33.44Zm105.35,55.76-38.19,62.6,87.08,8.06L827,292.49Zm-59.21-89.31-45.43,32.53L666.77,362.5l38.29-62.78.15-.25,120.83-8Z" transform="translate(121.31 370.89)"/></g><path class="cls-21" d="M521.65,156.16l96.54-32.53.26-.08,81.69,51.16Zm5.17-.57,168.67,17.53L618.3,124.77Z" transform="translate(121.31 370.89)"/><path class="cls-21" d="M27.68,562.64l1.11-.13c-.31-2.57,4-64.95,6.39-97.57l-1.12-.08C33.78,468.72,27.28,559.34,27.68,562.64Z" transform="translate(121.31 370.89)"/><polygon class="cls-21" points="430.45 580.09 447.37 505.31 380.89 511.75 395.83 449.37 394.73 449.12 379.44 513 445.94 506.56 429.36 579.85 430.45 580.09"/><path class="cls-21" d="M159.2,194.52c.16-5.46,9.73-133,9.83-134.25l-1.12-.07c-.1,1.28-9.68,128.81-9.83,134.29Z" transform="translate(121.31 370.89)"/><g class="cls-14"><polygon class="cls-21" points="384.48 779.53 433 683.89 515.99 679.95 516.13 679.85 618.99 603.89 619.04 603.73 646.13 526.77 646.08 526.61 620.63 440.36 541.96 480.78 446.84 505.32 395.57 448.73 395.38 448.69 287.97 430.25 379.75 512.75 428.72 579.3 279.37 564.77 282.57 652.46 202.17 763.64 203.08 764.28 283.71 652.79 283.7 652.6 280.54 566 431.1 580.64 380.55 511.97 291.58 431.99 394.99 449.75 446.46 506.56 446.79 506.47 542.36 481.81 542.42 481.79 619.93 441.97 644.96 526.75 618.04 603.21 515.6 678.86 432.29 682.81 432.15 683.1 383.48 779.04 384.48 779.53"/></g><polygon class="cls-21" points="618.44 604.1 618.59 603 431.2 579.57 542.26 481.95 645.31 527.27 645.77 526.26 542.06 480.64 541.79 480.88 428.61 580.37 618.44 604.1"/><polygon class="cls-21" points="241.8 938.15 241.98 937.96 315.52 860.3 156.86 835.37 202.91 764.54 385.22 779.94 283.47 652.14 283.3 652.09 201.87 629.24 280.85 565.38 280.3 564.95 107.55 431 106.86 431.87 279.06 565.4 199.5 629.72 282.81 653.11 382.74 778.62 202.34 763.38 202.15 763.67 154.99 836.2 313.26 861.07 241.34 937.02 149.84 932.92 66.45 822.68 65.55 823.34 149.25 934 149.52 934.01 241.8 938.15"/><path class="cls-21" d="M160.13,282l149-72.61,2.73,103.11,0,.7Zm3.41-.43,147.22,30.26L308.09,211.1Z" transform="translate(121.31 370.89)"/><polygon class="cls-21" points="202.39 764.47 202.86 763.46 74.28 704.87 201.43 629.68 122.16 480.99 121.17 481.5 199.94 629.28 71.89 705 202.39 764.47"/><polygon class="cls-21" points="980.21 760.79 1071.56 693.44 1079.34 750.15 1080.45 750 1072.41 691.43 979.93 759.62 876.63 742.15 827.31 670.58 826.38 671.21 875.97 743.16 980.21 760.79"/><g class="cls-56"><path class="cls-21" d="M618.36,124.71h-.11l-82.09-37L420.84,111,269.56,78l229.38-8.23L664,60.7l1.36-.27-.44.6,146,66.45Zm1.09-1.09,186.2,2.68L664.27,62ZM538,87.29l80.16,36.17L662.8,62.08ZM498.86,70.84,278.38,78.75l142.48,31.09,113.57-23Zm2.41-.13,35,15.8L656.5,62.22Z" transform="translate(121.31 370.89)"/></g><g class="cls-56"><polygon class="cls-21" points="595.39 868.97 718.85 797.12 718.28 796.17 597.33 866.56 628.31 768.55 627.24 768.22 595.39 868.97"/></g><g class="cls-58"><path class="cls-21" d="M192.05,490.15,262.24,408l.17-.19,149.51-1.17L506.41,397h.11l90.6,28.19,69.25-61.93.75.82-69.49,62.15-.24.21-91-28.32L413,407.68,476,497.31,320.77,516.89h-.1Zm219.63-82.36L262.93,409l-68.81,80.5,126.61,26.33,153.33-19.34Z" transform="translate(121.31 370.89)"/></g><g class="cls-59"><polygon class="cls-21" points="330.8 968.11 442.34 887.67 441.68 886.78 331.63 966.14 314.95 860.6 313.84 860.77 330.8 968.11"/></g><g class="cls-56"><polygon class="cls-21" points="619.99 441.64 620.57 440.69 493.9 365.9 345.38 374.02 394.81 449.54 395.75 448.94 347.38 375.02 493.61 367.03 619.99 441.64"/></g><polygon class="cls-21" points="447.18 506.11 494.92 364.76 394.92 448.82 395.64 449.66 492.59 368.17 446.12 505.76 447.18 506.11"/><g class="cls-60"><polygon class="cls-21" points="118.18 465.39 290.05 431.63 290.18 431.51 347.34 374.35 346.62 374.02 204.22 308.6 203.74 309.6 345.42 374.69 289.5 430.61 117.96 464.31 118.18 465.39"/></g><polygon class="cls-21" points="877.24 586.68 1079.79 522.98 1079.45 521.92 876.9 585.63 877.24 586.68"/><g class="cls-56"><polygon class="cls-21" points="718.74 797.17 876.48 743.18 876.12 742.14 718.38 796.12 718.74 797.17"/></g><g class="cls-14"><polygon class="cls-21" points="1528.3 827.79 1508.02 783.45 1615.79 801.49 1615.98 800.4 1506.13 782 1526.5 826.55 1359.84 814.17 1259.64 801.33 1238.66 743.99 1176.69 785.68 1072.26 691.93 1072.12 691.89 950.94 662.48 1017.67 615.99 930.06 497.45 929.15 498.1 1016.1 615.73 948.29 662.98 1071.71 692.94 1176.59 787.09 1176.96 786.84 1238.1 745.71 1258.82 802.34 1359.72 815.27 1528.3 827.79"/></g><g class="cls-56"><polygon class="cls-21" points="1571.82 849.76 1571.79 822.63 1570.67 822.63 1570.7 849.77 1571.82 849.76"/></g><g class="cls-61"><polygon class="cls-21" points="1668.99 939.18 1669.89 938.52 1613.58 862.28 1571.68 822.29 1516.95 728.9 1449.74 763.55 1449.66 763.75 1406.26 877.02 1407.31 877.41 1450.64 764.34 1516.52 730.37 1570.78 822.98 1570.84 823.03 1612.73 863.01 1668.99 939.18"/></g><g class="cls-56"><polygon class="cls-21" points="1308.06 873.41 1360.51 814.75 1360.24 814.39 1279.26 707.34 1278.36 708 1359.07 814.7 1307.22 872.67 1308.06 873.41"/></g><polygon class="cls-21" points="1359.79 815.36 1450.25 764.54 1507.51 783.45 1517.29 729.73 1516.18 729.54 1506.63 782 1450.13 763.34 1449.91 763.46 1359.8 814.09 1239.31 744.74 1279.61 707.68 1215.3 642.81 1214.49 643.59 1278.01 707.65 1237.44 744.95 1238.1 745.33 1359.79 815.36"/><g class="cls-56"><polygon class="cls-21" points="1362.98 777.38 1363.23 777.35 1450.27 764.49 1450.11 763.39 1363.32 776.22 1279.17 707.24 1278.45 708.09 1362.98 777.38"/></g><g class="cls-56"><polygon class="cls-21" points="1613.65 863.35 1616.48 800.04 1571.07 822.09 1527.34 826.62 1527.45 827.72 1571.39 823.17 1571.47 823.13 1615.28 801.86 1612.6 861.87 1571.42 849.24 1571.09 850.29 1613.65 863.35"/></g><g class="cls-56"><polygon class="cls-21" points="1406.34 877.55 1407.23 876.88 1359.27 814.55 1363.71 776.86 1362.59 776.74 1358.1 814.86 1358.24 815.04 1406.34 877.55"/></g><polygon class="cls-21" points="1407 877.72 1527.61 827.68 1527.18 826.66 1406.57 876.7 1407 877.72"/><g class="cls-56"><path class="cls-21" d="M1186.3,502.71H1186l-.09-.15-133.19-88.1L1138,430.4l.23.05,48.38,71.16,98.86,4.16,0,1.11Zm-128.37-86.17,126.35,83.59-46.7-68.68Z" transform="translate(121.31 370.89)"/></g><polygon class="cls-21" points="1669.06 939.26 1669.82 938.44 1571.58 849.31 1571.52 849.27 1527.66 826.68 1527.13 827.66 1570.93 850.22 1669.06 939.26"/><g class="cls-54"><polygon class="cls-21" points="1406.78 877.21 1358.68 814.71 1428.77 819.85 1406.78 877.21"/></g><g class="cls-56"><polygon class="cls-21" points="596.14 868.27 596.58 867.25 384.2 778.77 383.76 779.79 596.14 868.27"/></g></g></g></g></g></g></svg>