<svg xmlns="http://www.w3.org/2000/svg" viewBox="0 0 532.42 386.79"><defs><style>.cls-1,.cls-40{isolation:isolate;}.cls-2{fill:#c2ecfd;}.cls-15,.cls-24,.cls-25,.cls-26,.cls-3,.cls-38,.cls-5{fill:none;}.cls-3,.cls-5{stroke:#fff;stroke-linecap:round;stroke-linejoin:round;stroke-width:1.74px;}.cls-28,.cls-3,.cls-31,.cls-4,.cls-50{opacity:0.5;}.cls-6{fill:#eecab0;opacity:0.25;}.cls-50,.cls-52,.cls-54,.cls-6{mix-blend-mode:multiply;}.cls-7{fill:#ecf8ff;}.cls-8{fill:#dff5ff;}.cls-9{fill:#d7edfc;}.cls-10{fill:#87c0ec;}.cls-11{fill:#fff;}.cls-12{fill:#ededed;}.cls-13{fill:#5c87c7;}.cls-14{fill:#4061b0;}.cls-15{stroke:#ccc;stroke-width:4.35px;}.cls-15,.cls-24,.cls-25,.cls-26,.cls-38{stroke-miterlimit:10;}.cls-16{fill:#e2e2e2;}.cls-17{fill:#357272;}.cls-18{fill:#599694;}.cls-19{fill:#e5e5e5;}.cls-20{fill:#6d8eaf;}.cls-21{fill:#4e7a72;}.cls-22{fill:#86911d;opacity:0.99;}.cls-23{fill:#6f6865;}.cls-24{stroke:#a6a3a3;}.cls-24,.cls-25,.cls-26{stroke-width:7.81px;}.cls-25{stroke:#42a7c6;opacity:0.8;}.cls-26{stroke:#f0efe1;}.cls-27{fill:#649de1;}.cls-27,.cls-40,.cls-52,.cls-54{opacity:0.2;}.cls-28{fill:#dbeaf8;}.cls-29{fill:#1e759b;}.cls-30{fill:#4d87a0;}.cls-31{mix-blend-mode:screen;}.cls-32{fill:#c0dbf4;}.cls-33{fill:#345375;}.cls-34{fill:#71c2d8;}.cls-35{fill:#c1d9ed;}.cls-36{fill:#4b97b2;}.cls-37{fill:#223b51;}.cls-38{stroke:#263238;stroke-width:0.55px;}.cls-39{fill:#407bff;}.cls-41{fill:#3c5c85;}.cls-42{opacity:0.17;}.cls-43{fill:#83b2ea;opacity:0.29;}.cls-44{fill:#e6a897;}.cls-45{fill:#d99789;}.cls-46{fill:#2f3d6a;}.cls-47{fill:#5392b8;}.cls-48{fill:#d89a80;}.cls-49{fill:#3d3d3d;}.cls-51{fill:#48546c;}.cls-53{fill:#595959;}.cls-54,.cls-57{fill:#101010;}.cls-55{fill:#adbbdf;}.cls-56{fill:#e1e6f7;}.cls-58{opacity:0.7;}.cls-59{fill:#c3e0fd;}.cls-60{fill:#bde0f4;}</style></defs><title>10503510_4470586</title><g class="cls-1"><g id="OBJECTS"><path class="cls-2" d="M376.21,348.61c8.29-16.84,21.67-30.78,36.45-42.1,11.93-9.13,25.42-18,39.54-23.25,12.52-4.66,15.3,6.28,25.41,10,6.47,2.39,13.64-1.27,18.72-5.92,4.9-4.49,8.95-10.13,14.8-13.48,4.32-2.48,10.76-3.72,15.28-1.06,5.63,3.3,4.67,11.41,12.26,12.34,3.54.43,7.07-.84,10.27-2.41A145.28,145.28,0,0,1,572,273.28c7.3-2.14,16.76-2.85,21,3.48,4,6.08.21,14.33-4.66,19.77-11.72,13.09-29,20.16-46.46,22.48-4.75.63-9.64,1-14,2.9s-8.26,5.92-8.44,10.71c-.1,2.58.87,5.09.9,7.67.09,7.16-7,12.51-14,14.11-18,4.11-29.66-11.67-46.56-14.09-19.16-2.74-48.64.24-61.95,16.37" transform="translate(-62.26 -46.66)"/><path class="cls-3" d="M407.78,340.73a125.4,125.4,0,0,1,68.77-32.05c16-2.07,32.24-1.08,48.31-2.53s32.74-5.79,44.32-16.51" transform="translate(-62.26 -46.66)"/><path class="cls-2" d="M491.68,269.48c9.57-5.53,19.85-13.23,17.13-25-.89-3.85-3.73-7.36-3.24-11.28.32-2.59,2-4.74,3.3-7a21.35,21.35,0,0,0,1.11-18c-2.48-6.18-7.71-10.83-11-16.63A29.28,29.28,0,0,1,495.3,176c-10.11,1.06-18.84,7.44-28.63,10.19-7.48,2.11-15.47,2.07-22.85,4.5a36.56,36.56,0,0,0-24.47,31.71,20.15,20.15,0,0,0-17.14,7.54,26.12,26.12,0,0,0-5.2,19.66c4.41,28.46,19.05,51.09,37.79,72.2-4.07-4.59,8.44-18.86,10.86-21.64,10.52-12.08,24.95-19,38.75-26.61C486.6,272.29,489.12,271,491.68,269.48Z" transform="translate(-62.26 -46.66)"/><g class="cls-4"><path class="cls-5" d="M437.07,283.54c-2.38-12.2.81-24.77,4.71-36.57,3.81-11.51,8.36-22.86,14.93-33s15.28-19.19,26-24.79" transform="translate(-62.26 -46.66)"/><path class="cls-5" d="M440.3,200.65A99.72,99.72,0,0,0,446,235.31" transform="translate(-62.26 -46.66)"/><path class="cls-5" d="M447.67,231.19c11.81-9.2,30.65-15.85,45.6-16.36" transform="translate(-62.26 -46.66)"/><path class="cls-5" d="M417.2,236.05c15.68,5,18.33,27.13,19.31,33.4" transform="translate(-62.26 -46.66)"/><path class="cls-5" d="M439.33,255c10.8-9.34,29.37-19.31,41.94-17.35" transform="translate(-62.26 -46.66)"/><path class="cls-5" d="M437.05,282.4c8.58-11.43,32-25.41,44.58-23.45" transform="translate(-62.26 -46.66)"/><path class="cls-5" d="M465.4,192.6a18.3,18.3,0,0,0-2.81,13.27" transform="translate(-62.26 -46.66)"/><path class="cls-5" d="M465.6,202.44c5.07-3.21,12.13-4.49,19.93-3.28" transform="translate(-62.26 -46.66)"/></g><path class="cls-2" d="M297.32,369.12c-12.95-35.46-46.15-68.56-78.85-87.45-8-4.61-19.6-8.09-23.26,2.91-2.35,7.07-10.58,5.23-15.29,2-5.84-4.05-9.24-10.63-14.19-15.58A27.18,27.18,0,0,0,151.12,263c-5.56-.9-11.61.55-15.69,4.44-3.09,2.94-4.94,7.09-8.37,9.65-5.74,4.28-14.09,2.69-20.2-1.06S96,266.78,90,262.74s-13.89-6.42-20.19-3c-8.35,4.53-9.11,16.58-5.57,25.39,2.19,5.44,5.65,13.33,9.8,17.59,5.91,6.05,14.49,10.07,22.7,11.68,6,1.19,12.3,1.16,18.3,2.58,2.17.52,4.66,1.43,5.09,3.93.63,3.61-3.83,5.81-6.44,7.13-4.5,2.27-9,7.22-6.86,11.81,1.32,2.87,4.69,4.16,7.81,4.69,9.37,1.59,18.67-1.11,27.55-3.85,5.41-1.67,10.15-5.05,15.7-6.48,2.88-.75,10.27-1.08,9.47,3.8a6.68,6.68,0,0,1-2.51,3.77,27.42,27.42,0,0,0-3.47,3.06c-4.26,5.18,0,11.29,5.56,12.63,4.3,1,8.79-.07,13.1-1.07,28.15-6.58,57.67-9.12,86-3.38,6,1.22,12.63,3.28,15.66,8.65" transform="translate(-62.26 -46.66)"/><path class="cls-3" d="M267,346.77a139.77,139.77,0,0,0-76.8-35.4c-17.85-2.24-35.94-1.06-53.86-2.6s-36.51-6.31-49.47-18.2" transform="translate(-62.26 -46.66)"/><path class="cls-6" d="M273.4,349.52s-49.24-32.75-63.14-66c9.39,2.54,15.46,5.59,22.05,11,7.12,10.05,24.05,25.47,35.54,35.47C269.48,335.47,271.32,341.91,273.4,349.52Z" transform="translate(-62.26 -46.66)"/><path class="cls-2" d="M271.53,338.27c-1.84-11.57-6.94-23-8.94-34.81-3.21-18.85-3.71-37.8-.22-56.53,3-16,7.9-32.67,2.49-48.83-1.43-4.29-4.08-8.92-9.64-8.88a9.21,9.21,0,0,0-6,2.38c-4,3.59-4.8,8.76-5.46,13.7l-2.21,16.51c-.71,5.37-8.89,6-10.53.78l0-.13c-1.34-4.39-1.1-9-.75-13.55.78-9.85,2-19.77.52-29.58-1.82-11.87-8.33-23.91-21-28.37a23.32,23.32,0,0,0-14-.48c-12.7,3.63-15.27,15.6-12.72,25.63,1.79,7.06,5.77,13.46,9.41,19.89,8.89,15.7,4.09,30.63,6.32,48.19C203.49,281.39,239.89,317.35,271.53,338.27Z" transform="translate(-62.26 -46.66)"/><path class="cls-3" d="M202,172c26.6,32.19,17,108.19,63.35,149.21" transform="translate(-62.26 -46.66)"/><path class="cls-3" d="M253.91,209.82c3,16.27-7.42,34.53-9.84,44.65S240.36,281.84,243,292" transform="translate(-62.26 -46.66)"/><path class="cls-7" d="M177.51,368.79c-1.15-6.5-19.31-47.06-40.34-36.2-12.49,6.45-10.24,30.21,9.27,48.15-3.83-3.7-8.26-7.9-13.48-8.94a10.41,10.41,0,0,0-8.39,2.69c-1.88,1.74-2.44,4.48-2.52,7a27.7,27.7,0,0,0,12.34,23.71c-4.32-2.41-8.06-5.43-13-5.86-1.6-.13-4.31.78-5,2.21s-.75,7.36,8.75,11.71c-38.72-7.35-41,9.16-27.06,9.16H212.2" transform="translate(-62.26 -46.66)"/><path class="cls-8" d="M250.07,336.59c-1.84-10.42-21-75.89-54.68-58.5-20,10.32-16.4,48.35,14.83,77.08-6.13-5.93-13.21-12.65-21.57-14.31-4.52-.9-10.05,1.18-13.44,4.31-3,2.78-3.9,7.17-4,11.27a44.33,44.33,0,0,0,19.76,37.94c-6.91-3.85-12.9-8.69-20.78-9.36-2.56-.23-6.91,1.24-8.09,3.52-1.29,2.49-1.2,11.8,14,18.75-62-11.76-65.61,14.66-43.33,14.66H280" transform="translate(-62.26 -46.66)"/><path class="cls-7" d="M503.56,368.79c1.15-6.5,19.32-47.06,40.35-36.2,12.49,6.45,10.24,30.21-9.27,48.15,3.83-3.7,8.25-7.9,13.48-8.94a10.43,10.43,0,0,1,8.39,2.69c1.88,1.74,2.43,4.48,2.52,7a27.73,27.73,0,0,1-12.34,23.71c4.31-2.41,8-5.43,13-5.86,1.6-.13,4.31.78,5.05,2.21s.75,7.36-8.75,11.71c38.72-7.35,41,9.16,27.06,9.16H468.88" transform="translate(-62.26 -46.66)"/><path class="cls-8" d="M431,336.59c1.84-10.42,21-75.89,54.69-58.5,20,10.32,16.4,48.35-14.84,77.08,6.13-5.93,13.21-12.65,21.58-14.31,4.52-.9,10.05,1.18,13.43,4.31,3,2.78,3.9,7.17,4,11.27a44.33,44.33,0,0,1-19.76,37.94c6.91-3.85,12.89-8.69,20.78-9.36,2.56-.23,6.9,1.24,8.09,3.52,1.29,2.49,1.2,11.8-14,18.75C567,395.53,570.6,422,548.32,422H401.07" transform="translate(-62.26 -46.66)"/><polyline class="cls-9" points="220.26 74.49 229.39 79.36 224.83 67.49"/><circle class="cls-9" cx="211.22" cy="59.31" r="19.3"/><path class="cls-10" d="M272.35,95.05a7,7,0,0,1,7.12,9.82l-.67,1.67-2.36,6.11-2.5.22-2.51.22-3.36-5.6-1-1.52a7,7,0,0,1-1.16-3.23,7.09,7.09,0,0,1,6.43-7.69M272.26,94a8.18,8.18,0,0,0-7.42,8.87,8,8,0,0,0,1.33,3.74l4.69,7.67L274,114l3.18-.28,3.26-8.37A8.11,8.11,0,0,0,272.26,94Z" transform="translate(-62.26 -46.66)"/><path class="cls-10" d="M274.57,120h0a3.2,3.2,0,0,1-3.47-2.9l-.2-2.33,6.36-.56.21,2.33A3.19,3.19,0,0,1,274.57,120Z" transform="translate(-62.26 -46.66)"/><path class="cls-10" d="M269.61,104a.54.54,0,0,1-.05-1.08l6.92-.62a.55.55,0,0,1,.59.5.54.54,0,0,1-.49.58l-6.92.62Z" transform="translate(-62.26 -46.66)"/><path class="cls-10" d="M274,113.93a.54.54,0,0,1-.54-.5l-.91-10.28a.54.54,0,0,1,1.08-.1l.91,10.29a.54.54,0,0,1-.49.59Z" transform="translate(-62.26 -46.66)"/><polyline class="cls-9" points="320.12 92.75 311.79 97.2 315.95 86.37"/><circle class="cls-9" cx="328.36" cy="78.91" r="17.61"/><path class="cls-10" d="M400.39,127.37a8.59,8.59,0,0,0,.3-2.28,8.75,8.75,0,0,0-.26-2.13l-1.61.18a8.16,8.16,0,0,0-.95-2.32l1.29-1a9,9,0,0,0-1.41-1.83c-.21-.21-.44-.42-.67-.61l-.19-.15a9.28,9.28,0,0,0-.83-.56l-1,1.28-.25-.14-.28-.16a8.41,8.41,0,0,0-1.77-.68l.18-1.64a9,9,0,0,0-2.28-.29,8.81,8.81,0,0,0-2.13.25l.18,1.63a8.12,8.12,0,0,0-2.32.93l-1-1.28a9.3,9.3,0,0,0-1.82,1.4,8.77,8.77,0,0,0-1.32,1.69l1.27,1a8.25,8.25,0,0,0-1,2.3l-1.62-.18a8.66,8.66,0,0,0-.3,2.29,8.87,8.87,0,0,0,.26,2.13l1.61-.18a8.44,8.44,0,0,0,.94,2.32l-1.28,1a8.77,8.77,0,0,0,1.41,1.83,8.48,8.48,0,0,0,1.69,1.32l1-1.27a8.51,8.51,0,0,0,2.31,1l-.18,1.61a9,9,0,0,0,2.28.3,8.75,8.75,0,0,0,2.13-.26l-.18-1.6a8.69,8.69,0,0,0,2.34-.94l1,1.26a8.35,8.35,0,0,0,1.82-1.4,9.24,9.24,0,0,0,1.33-1.69l-1.27-1a8.49,8.49,0,0,0,1-2.31Zm-4.59-2.12a5.17,5.17,0,1,1-5.34-5.34A5.19,5.19,0,0,1,395.8,125.25Z" transform="translate(-62.26 -46.66)"/><rect class="cls-11" x="219.25" y="318.18" width="161.79" height="48.74"/><rect class="cls-12" x="180.25" y="364.85" width="101.27" height="48.74" transform="translate(399.51 731.77) rotate(180)"/><path class="cls-13" d="M269.1,356.37v12.25H428.63a10.9,10.9,0,0,1,10.9,10.9v19.39a10.9,10.9,0,0,1-10.9,10.9H269.1v12.25H434.43a18.87,18.87,0,0,0,18.87-18.87V375.24a18.87,18.87,0,0,0-18.87-18.87Z" transform="translate(-62.26 -46.66)"/><rect class="cls-14" x="108.69" y="309.71" width="98.14" height="12.25"/><rect class="cls-14" x="108.69" y="363.15" width="98.14" height="12.25"/><line class="cls-15" x1="117.99" y1="331.84" x2="219.25" y2="331.84"/><line class="cls-15" x1="117.99" y1="345.32" x2="219.25" y2="345.32"/><line class="cls-15" x1="117.99" y1="356.5" x2="219.25" y2="356.5"/><polygon class="cls-16" points="347.06 331.84 219.25 334.02 219.25 329.67 347.06 331.84"/><polygon class="cls-16" points="360.26 345.32 219.25 347.5 219.25 343.14 360.26 345.32"/><polygon class="cls-16" points="347.06 356.5 219.25 358.68 219.25 354.32 347.06 356.5"/><path class="cls-17" d="M147.48,227.13H276.79a0,0,0,0,1,0,0v82.58a0,0,0,0,1,0,0H147.48a14.19,14.19,0,0,1-14.19-14.19V241.32A14.19,14.19,0,0,1,147.48,227.13Z"/><rect class="cls-11" x="292.88" y="282.27" width="136.73" height="65.63" transform="translate(660.23 583.5) rotate(180)"/><path class="cls-18" d="M442,273.79V286H307.57a10.9,10.9,0,0,0-10.9,10.9v36.28a10.9,10.9,0,0,0,10.9,10.9H442v12.25H301.76A18.86,18.86,0,0,1,282.9,337.5V292.66a18.86,18.86,0,0,1,18.86-18.87Z" transform="translate(-62.26 -46.66)"/><polygon class="cls-19" points="264.61 249.26 367.35 247.09 367.35 251.44 264.61 249.26"/><polygon class="cls-19" points="243.33 258.11 367.35 255.94 367.35 260.29 243.33 258.11"/><polygon class="cls-19" points="251.41 279.63 367.35 277.45 367.35 281.8 251.41 279.63"/><polygon class="cls-19" points="264.61 290.81 367.35 288.63 367.35 292.98 264.61 290.81"/><rect class="cls-11" x="180.3" y="211.43" width="183.57" height="16.93"/><rect class="cls-20" x="180.3" y="154.52" width="183.57" height="16.92"/><rect class="cls-21" x="170.7" y="137.6" width="199.19" height="16.93"/><rect class="cls-22" x="184.86" y="171.45" width="179.02" height="16.93"/><rect class="cls-23" x="193.4" y="188.38" width="168.68" height="23.05"/><line class="cls-24" x1="212.53" y1="199.9" x2="232.71" y2="199.9"/><line class="cls-24" x1="243.77" y1="199.9" x2="342.56" y2="199.9"/><line class="cls-25" x1="199.26" y1="179.91" x2="342.56" y2="179.91"/><line class="cls-26" x1="270.91" y1="162.99" x2="356.71" y2="162.99"/><line class="cls-26" x1="180.3" y1="146.06" x2="356.71" y2="146.06"/><path class="cls-27" d="M209.44,339.72A15.47,15.47,0,0,1,197.84,326c0-.32,0-.64,0-.95a1.46,1.46,0,0,1,0-.29,1.27,1.27,0,0,1,0-.28c0-.32,0-.63,0-.95a15.47,15.47,0,0,1,11.6-13.76A56.83,56.83,0,0,0,251.06,255a56.16,56.16,0,0,0-.93-10.28c-.1-.57-.21-1.14-.34-1.69s-.17-.82-.28-1.23a.17.17,0,0,0,0-.07c-.05-.22-.1-.43-.16-.64-.1-.41-.2-.8-.32-1.21-.16-.61-.34-1.22-.53-1.83h-1.94c.07.2.13.4.19.6l0,.1c.11.34.21.69.31,1s.13.45.18.67.2.71.29,1.07.11.45.16.67c.09.37.17.73.25,1.09,0,.13.06.25.08.38a.89.89,0,0,0,0,.14l.24,1.25A55,55,0,0,1,209,308,17.27,17.27,0,0,0,196,323.39q0,.53,0,1.05a2.53,2.53,0,0,0,0,.28c0,.1,0,.2,0,.29q0,.53,0,1.05A17.27,17.27,0,0,0,209,341.5a55,55,0,0,1,39.36,62.91A53.45,53.45,0,0,1,244,417.76H144.49a54.84,54.84,0,0,1-5.17-23.3,55.11,55.11,0,0,1,40.27-53,17.29,17.29,0,0,0,12.95-15.44q0-.53,0-1.05c0-.09,0-.19,0-.29a2.53,2.53,0,0,0,0-.28q0-.53,0-1.05A17.29,17.29,0,0,0,179.59,308,55,55,0,0,1,140.22,245c.11-.57.22-1.14.35-1.72v0c.13-.55.25-1.11.39-1.66a.3.3,0,0,0,0-.1c.11-.42.22-.85.35-1.27a.29.29,0,0,1,0-.1,3,3,0,0,1,.14-.49c.08-.31.17-.61.27-.91a.29.29,0,0,1,0-.1c0-.2.12-.4.19-.6h-1.94q-.28.92-.54,1.83c-.11.41-.22.8-.31,1.21-.06.21-.11.42-.16.64a.19.19,0,0,0,0,.07q-.15.61-.27,1.23c-.13.55-.24,1.12-.34,1.69a56.16,56.16,0,0,0-.94,10.28,56.82,56.82,0,0,0,41.63,54.74,15.46,15.46,0,0,1,11.59,13.76c0,.32,0,.63,0,.95a2.53,2.53,0,0,1,0,.28c0,.1,0,.2,0,.29,0,.31,0,.63,0,.95a15.46,15.46,0,0,1-11.59,13.76,56.82,56.82,0,0,0-41.63,54.74,57,57,0,0,0,5.86,25.15H245.21a56.8,56.8,0,0,0,5.85-25.15A56.83,56.83,0,0,0,209.44,339.72Z" transform="translate(-62.26 -46.66)"/><path class="cls-11" d="M249.21,394.46a54.64,54.64,0,0,1-.9,10A53.45,53.45,0,0,1,244,417.76H144.49a54.84,54.84,0,0,1-5.17-23.3,55.11,55.11,0,0,1,40.27-53,17.29,17.29,0,0,0,12.95-15.44q0-.53,0-1.05c0-.09,0-.19,0-.29a2.53,2.53,0,0,0,0-.28q0-.53,0-1.05A17.29,17.29,0,0,0,179.59,308,55,55,0,0,1,140.22,245c.11-.57.22-1.14.35-1.72v0c.12-.55.25-1.11.39-1.66a.3.3,0,0,0,0-.1c.12-.46.24-.91.38-1.37s.26-.94.41-1.4c.07-.23.14-.47.22-.7H246.55c.08.23.15.47.22.7s.21.69.31,1,.13.45.18.67.2.71.29,1.07.11.45.16.67c.09.37.17.73.25,1.09,0,.17.07.35.11.52l.24,1.25A55,55,0,0,1,209,308,17.27,17.27,0,0,0,196,323.39q0,.53,0,1.05a2.53,2.53,0,0,0,0,.28c0,.1,0,.2,0,.29q0,.53,0,1.05A17.27,17.27,0,0,0,209,341.5,55.1,55.1,0,0,1,249.21,394.46Z" transform="translate(-62.26 -46.66)"/><path class="cls-28" d="M249.21,394.46a54.64,54.64,0,0,1-.9,10A53.45,53.45,0,0,1,244,417.76H144.49a54.84,54.84,0,0,1-5.17-23.3,55.11,55.11,0,0,1,40.27-53,17.29,17.29,0,0,0,12.95-15.44q0-.53,0-1.05c0-.09,0-.19,0-.29a2.53,2.53,0,0,0,0-.28q0-.53,0-1.05A17.29,17.29,0,0,0,179.59,308,55,55,0,0,1,140.22,245c.11-.57.22-1.14.35-1.72v0c.12-.55.25-1.11.39-1.66a.3.3,0,0,0,0-.1c.12-.46.24-.91.38-1.37s.26-.94.41-1.4c.07-.23.14-.47.22-.7H246.55c.08.23.15.47.22.7s.21.69.31,1,.13.45.18.67.2.71.29,1.07.11.45.16.67c.09.37.17.73.25,1.09,0,.17.07.35.11.52l.24,1.25A55,55,0,0,1,209,308,17.27,17.27,0,0,0,196,323.39q0,.53,0,1.05a2.53,2.53,0,0,0,0,.28c0,.1,0,.2,0,.29q0,.53,0,1.05A17.27,17.27,0,0,0,209,341.5,55.1,55.1,0,0,1,249.21,394.46Z" transform="translate(-62.26 -46.66)"/><path class="cls-29" d="M149,287.35s8.67,14.2,29.45,20.73c5.32,1.57,7.11,2.72,10.17,5.54s4.11,7.79,4,11.72c0,3,1.71,47.54,1.71,53.08,0,5.23.68,1.36.52.23C195.33,347.16,196,324,196,324s1.89-9.9,4.8-11.27,13.49-6.27,17.81-7.48,14.78-10.74,14.78-10.74,13.28-18.94,14.09-21.36-6-2.66-6-2.66Z" transform="translate(-62.26 -46.66)"/><ellipse class="cls-30" cx="197.42" cy="277.91" rx="51.01" ry="10.54" transform="translate(-102.94 -12.71) rotate(-8.91)"/><g class="cls-31"><path class="cls-11" d="M179.32,301a5.41,5.41,0,0,1-1.8-.31,53,53,0,0,1-10.94-5.16,5.54,5.54,0,0,1,5.9-9.39,42,42,0,0,0,8.64,4.07,5.55,5.55,0,0,1-1.8,10.79Z" transform="translate(-62.26 -46.66)"/><path class="cls-11" d="M157.65,284.62a5.54,5.54,0,0,1-4.69-2.56c-9.66-15.19-7.17-32.25-7.06-33a5.54,5.54,0,0,1,11,1.67c0,.23-1.89,13.8,5.46,25.35a5.55,5.55,0,0,1-1.7,7.65A5.61,5.61,0,0,1,157.65,284.62Z" transform="translate(-62.26 -46.66)"/></g><g class="cls-31"><path class="cls-11" d="M179.32,347.86a5.4,5.4,0,0,0-1.8.3,52.49,52.49,0,0,0-10.94,5.17,5.54,5.54,0,0,0,5.9,9.38,42,42,0,0,1,8.64-4.07,5.54,5.54,0,0,0-1.8-10.78Z" transform="translate(-62.26 -46.66)"/><path class="cls-11" d="M157.65,364.21a5.55,5.55,0,0,0-4.69,2.57c-9.66,15.19-7.17,32.24-7.06,33a5.54,5.54,0,0,0,11-1.67c0-.22-1.89-13.79,5.46-25.34a5.55,5.55,0,0,0-4.67-8.52Z" transform="translate(-62.26 -46.66)"/></g><path class="cls-32" d="M209.44,339.72A15.47,15.47,0,0,1,197.84,326c0-.32,0-.64,0-.95a1.46,1.46,0,0,1,0-.29,1.27,1.27,0,0,1,0-.28c0-.32,0-.63,0-.95a15.47,15.47,0,0,1,11.6-13.76A56.83,56.83,0,0,0,251.06,255a56.16,56.16,0,0,0-.93-10.28c-.1-.57-.21-1.14-.34-1.69s-.17-.82-.28-1.23a.17.17,0,0,0,0-.07c-.05-.22-.1-.43-.16-.64-.1-.41-.2-.8-.32-1.21-.16-.61-.34-1.22-.53-1.83h-1.94c.07.19.13.4.19.6l0,.1c.11.34.21.69.31,1s.13.45.18.67.2.71.29,1.07.11.45.16.67c.09.37.17.73.25,1.09,0,.13,0,.25.08.38a.89.89,0,0,0,0,.14l.24,1.25A55,55,0,0,1,209,308,17.27,17.27,0,0,0,196,323.39q0,.53,0,1.05a2.53,2.53,0,0,0,0,.28c0,.1,0,.2,0,.29q0,.53,0,1.05A17.27,17.27,0,0,0,209,341.5a55,55,0,0,1,39.36,62.91A53.45,53.45,0,0,1,244,417.76H144.49a54.84,54.84,0,0,1-5.17-23.3,55.11,55.11,0,0,1,40.27-53,17.29,17.29,0,0,0,12.95-15.44q0-.53,0-1.05c0-.09,0-.19,0-.29a2.53,2.53,0,0,0,0-.28q0-.53,0-1.05A17.29,17.29,0,0,0,179.59,308,55,55,0,0,1,140.22,245c.11-.57.22-1.15.35-1.72v0c.13-.55.25-1.11.39-1.66a.3.3,0,0,0,0-.1c.11-.42.22-.85.35-1.27a.29.29,0,0,1,0-.1,4.5,4.5,0,0,1,.14-.49c.08-.31.17-.61.27-.91a.29.29,0,0,1,0-.1c.06-.2.12-.41.19-.6h-1.94q-.28.92-.54,1.83c-.11.41-.22.8-.31,1.21-.06.21-.11.42-.16.64a.19.19,0,0,0,0,.07q-.15.61-.27,1.23c-.13.55-.24,1.12-.34,1.69a56.16,56.16,0,0,0-.94,10.28,56.82,56.82,0,0,0,41.63,54.74,15.46,15.46,0,0,1,11.59,13.76c0,.32,0,.63,0,.95a2.53,2.53,0,0,1,0,.28c0,.1,0,.2,0,.29,0,.31,0,.63,0,.95a15.46,15.46,0,0,1-11.59,13.76,56.82,56.82,0,0,0-41.63,54.74,57,57,0,0,0,5.86,25.15H245.21a56.8,56.8,0,0,0,5.85-25.15A56.83,56.83,0,0,0,209.44,339.72Z" transform="translate(-62.26 -46.66)"/><path class="cls-33" d="M265.06,416.59h0a5.37,5.37,0,0,1-5.37,5.37H128.85a5.36,5.36,0,0,1-5.37-5.37h0a5.36,5.36,0,0,1,5.37-5.37H259.69A5.37,5.37,0,0,1,265.06,416.59Z" transform="translate(-62.26 -46.66)"/><path class="cls-34" d="M237.75,272.17c.09.41-1,1-2.44,1.29s-2.67.22-2.76-.19,1-1,2.45-1.28S237.67,271.77,237.75,272.17Z" transform="translate(-62.26 -46.66)"/><path class="cls-34" d="M234.45,276.84c.08.4-.59.89-1.51,1.08s-1.72,0-1.81-.38.59-.89,1.5-1.09S234.36,276.43,234.45,276.84Z" transform="translate(-62.26 -46.66)"/><path class="cls-34" d="M230.25,275.61c.09.4-.59.89-1.5,1.08s-1.73,0-1.82-.38.59-.89,1.51-1.09S230.17,275.2,230.25,275.61Z" transform="translate(-62.26 -46.66)"/><path class="cls-34" d="M201.28,279.33c.05.22-.32.49-.81.59s-.93,0-1-.21.32-.48.81-.58S201.24,279.11,201.28,279.33Z" transform="translate(-62.26 -46.66)"/><path class="cls-34" d="M223.67,272.53c0,.22-.32.48-.82.59s-.93,0-1-.21.31-.48.81-.58S223.62,272.31,223.67,272.53Z" transform="translate(-62.26 -46.66)"/><path class="cls-34" d="M215.55,280.35c0,.22-.32.48-.81.58s-.93,0-1-.2.32-.49.81-.59S215.51,280.13,215.55,280.35Z" transform="translate(-62.26 -46.66)"/><path class="cls-34" d="M204.73,285.52c0,.22-.32.48-.82.59s-.93,0-1-.21.32-.48.82-.58S204.68,285.3,204.73,285.52Z" transform="translate(-62.26 -46.66)"/><path class="cls-29" d="M194.9,372.79l-.38-.15-.38.15s-3.27,25.57-38.38,38.43h77.51C198.17,398.36,194.9,372.79,194.9,372.79Z" transform="translate(-62.26 -46.66)"/><path class="cls-35" d="M248.67,238.63c0,2.85-24.36,5.16-54.4,5.16s-54.4-2.31-54.4-5.16,24.36-5.17,54.4-5.17S248.67,235.77,248.67,238.63Z" transform="translate(-62.26 -46.66)"/><path class="cls-33" d="M259.69,230.67H128.85a5.37,5.37,0,1,0,0,10.74H259.69a5.37,5.37,0,1,0,0-10.74Z" transform="translate(-62.26 -46.66)"/><path class="cls-33" d="M501.47,385.09h78.32a5.12,5.12,0,0,1,5.12,5.12v0a5.12,5.12,0,0,1-5.12,5.12H501.47a0,0,0,0,1,0,0V385.09a0,0,0,0,1,0,0Z" transform="translate(374.97 -316.82) rotate(45.19)"/><path class="cls-13" d="M502.43,385.38h78.85a1.82,1.82,0,0,1,1.82,1.82v0a1.82,1.82,0,0,1-1.82,1.82H502.43a0,0,0,0,1,0,0v-3.64a0,0,0,0,1,0,0Z" transform="translate(372.71 -317.41) rotate(45.19)"/><rect class="cls-29" x="471.35" y="315.14" width="49.13" height="57.18" transform="translate(328.04 -297.01) rotate(45.19)"/><rect class="cls-36" x="482.18" y="306.59" width="10.27" height="57.18" transform="translate(319.43 -293.43) rotate(45.19)"/><rect class="cls-33" x="446.26" y="360.21" width="56.54" height="9.53" rx="4.56" transform="translate(336.79 -275.57) rotate(45.19)"/><polygon class="cls-37" points="425.31 342.25 388.42 305.11 392.06 303.77 426.68 338.62 425.31 342.25"/><rect class="cls-33" x="437.17" y="369.5" width="59.9" height="5.66" rx="2.56" transform="translate(339.83 -268.14) rotate(45.19)"/><rect class="cls-33" x="488.98" y="317.77" width="56.54" height="9.53" rx="4.56" transform="translate(319.3 -318.41) rotate(45.19)"/><polygon class="cls-37" points="478.84 289.08 441.95 251.94 440.59 255.56 475.21 290.42 478.84 289.08"/><rect class="cls-33" x="494.72" y="312.35" width="59.9" height="5.66" rx="2.56" transform="translate(316.26 -325.84) rotate(45.19)"/><path class="cls-29" d="M373.79,348h65.69a17.58,17.58,0,0,1,17.58,17.58v0a0,0,0,0,1,0,0H356.2a0,0,0,0,1,0,0v0A17.58,17.58,0,0,1,373.79,348Z"/><rect class="cls-36" x="354.69" y="364.39" width="103.89" height="3.49" rx="1.74"/><rect class="cls-33" x="350.02" y="365.6" width="113.23" height="9.8" rx="4.9"/><path class="cls-36" d="M401.28,350.48h42a2.27,2.27,0,0,1,2.27,2.27v0a.76.76,0,0,1-.76.76H401.28a1.51,1.51,0,0,1-1.51-1.51v0a1.51,1.51,0,0,1,1.51-1.51Z"/><path class="cls-38" d="M103.89,345.68s35.72,27.53,69.39,0" transform="translate(-62.26 -46.66)"/><path class="cls-38" d="M173.05,345.68s35.72,27.53,69.39,0" transform="translate(-62.26 -46.66)"/><path class="cls-38" d="M241.91,345.68s35.72,27.53,69.39,0" transform="translate(-62.26 -46.66)"/><rect class="cls-39" x="40.6" y="299.25" width="2.28" height="3.67"/><rect class="cls-40" x="40.6" y="299.25" width="2.28" height="3.67"/><path class="cls-13" d="M105.22,346.65a1.41,1.41,0,0,0,.15-.61,1.37,1.37,0,1,0-2.74,0,1.41,1.41,0,0,0,.15.61Z" transform="translate(-62.26 -46.66)"/><rect class="cls-41" x="40.47" y="314.17" width="2.52" height="72.42"/><g class="cls-42"><rect x="40.47" y="308.97" width="2.52" height="8.06"/></g><path class="cls-13" d="M107.52,351.55A3.52,3.52,0,1,1,104,348,3.53,3.53,0,0,1,107.52,351.55Z" transform="translate(-62.26 -46.66)"/><path class="cls-43" d="M100.77,351.92c0,.06,0,.12,0,.19a3.58,3.58,0,0,0,1.46.32,3.53,3.53,0,0,0,3.52-3.52c0-.07,0-.13,0-.19a3.51,3.51,0,0,0-5,3.2Z" transform="translate(-62.26 -46.66)"/><polygon class="cls-13" points="43.4 314.92 40.08 314.92 39.35 307.47 44.12 307.47 43.4 314.92"/><path class="cls-33" d="M102.61,428.42h2.77a4.61,4.61,0,0,0,2.5,2.56l1,.33H99.11l1-.33A4.57,4.57,0,0,0,102.61,428.42Z" transform="translate(-62.26 -46.66)"/><path class="cls-41" d="M36.14,384.58H47.33a.83.83,0,0,1,.83.83v.69a0,0,0,0,1,0,0H35.31a0,0,0,0,1,0,0v-.69A.83.83,0,0,1,36.14,384.58Z"/><path class="cls-33" d="M111.24,433.45H96.76v-.9a.48.48,0,0,1,.48-.48h13.52a.49.49,0,0,1,.48.48Z" transform="translate(-62.26 -46.66)"/><rect class="cls-39" x="109.81" y="299.25" width="2.28" height="3.67"/><rect class="cls-40" x="109.81" y="299.25" width="2.28" height="3.67"/><path class="cls-13" d="M174.43,346.65a1.41,1.41,0,0,0,.15-.61,1.37,1.37,0,1,0-2.74,0,1.28,1.28,0,0,0,.15.61Z" transform="translate(-62.26 -46.66)"/><rect class="cls-41" x="109.68" y="314.17" width="2.52" height="72.42"/><g class="cls-42"><rect x="109.68" y="308.97" width="2.52" height="8.06"/></g><path class="cls-13" d="M176.73,351.55a3.53,3.53,0,1,1-3.52-3.52A3.53,3.53,0,0,1,176.73,351.55Z" transform="translate(-62.26 -46.66)"/><path class="cls-43" d="M170,351.92c0,.06,0,.12,0,.19a3.51,3.51,0,0,0,5-3.2c0-.07,0-.13,0-.19a3.58,3.58,0,0,0-1.46-.32A3.52,3.52,0,0,0,170,351.92Z" transform="translate(-62.26 -46.66)"/><polygon class="cls-13" points="112.6 314.92 109.28 314.92 108.56 307.47 113.33 307.47 112.6 314.92"/><path class="cls-33" d="M171.82,428.42h2.77a4.61,4.61,0,0,0,2.5,2.56l1,.33h-9.78l1-.33A4.61,4.61,0,0,0,171.82,428.42Z" transform="translate(-62.26 -46.66)"/><path class="cls-41" d="M105.35,384.58h11.19a.83.83,0,0,1,.83.83v.69a0,0,0,0,1,0,0H104.52a0,0,0,0,1,0,0v-.69A.83.83,0,0,1,105.35,384.58Z"/><path class="cls-33" d="M180.44,433.45H166v-.9a.48.48,0,0,1,.47-.48H180a.48.48,0,0,1,.47.48Z" transform="translate(-62.26 -46.66)"/><rect class="cls-39" x="179.01" y="299.25" width="2.28" height="3.67"/><rect class="cls-40" x="179.01" y="299.25" width="2.28" height="3.67"/><path class="cls-13" d="M243.63,346.65a1.28,1.28,0,0,0,.15-.61,1.37,1.37,0,1,0-2.74,0,1.41,1.41,0,0,0,.15.61Z" transform="translate(-62.26 -46.66)"/><rect class="cls-41" x="178.89" y="314.17" width="2.52" height="72.42"/><g class="cls-42"><rect x="178.89" y="308.97" width="2.52" height="8.06"/></g><path class="cls-13" d="M245.94,351.55a3.53,3.53,0,1,1-3.53-3.52A3.53,3.53,0,0,1,245.94,351.55Z" transform="translate(-62.26 -46.66)"/><path class="cls-43" d="M239.19,351.92a1.37,1.37,0,0,0,0,.19,3.51,3.51,0,0,0,5-3.2c0-.07,0-.13,0-.19a3.58,3.58,0,0,0-1.46-.32A3.52,3.52,0,0,0,239.19,351.92Z" transform="translate(-62.26 -46.66)"/><polygon class="cls-13" points="181.81 314.92 178.49 314.92 177.76 307.47 182.54 307.47 181.81 314.92"/><path class="cls-33" d="M241,428.42h2.77a4.61,4.61,0,0,0,2.5,2.56l1,.33h-9.77l1-.33A4.61,4.61,0,0,0,241,428.42Z" transform="translate(-62.26 -46.66)"/><path class="cls-41" d="M174.56,384.58h11.19a.83.83,0,0,1,.83.83v.69a0,0,0,0,1,0,0H173.73a0,0,0,0,1,0,0v-.69A.83.83,0,0,1,174.56,384.58Z"/><path class="cls-33" d="M249.65,433.45H235.18v-.9a.48.48,0,0,1,.47-.48h13.53a.48.48,0,0,1,.47.48Z" transform="translate(-62.26 -46.66)"/><rect class="cls-39" x="248.22" y="299.25" width="2.28" height="3.67"/><rect class="cls-40" x="248.22" y="299.25" width="2.28" height="3.67"/><path class="cls-13" d="M312.84,346.65A1.28,1.28,0,0,0,313,346a1.37,1.37,0,1,0-2.74,0,1.41,1.41,0,0,0,.15.61Z" transform="translate(-62.26 -46.66)"/><rect class="cls-41" x="248.1" y="314.17" width="2.52" height="72.42"/><g class="cls-42"><rect x="248.1" y="308.97" width="2.52" height="8.06"/></g><path class="cls-13" d="M315.14,351.55a3.52,3.52,0,1,1-3.52-3.52A3.52,3.52,0,0,1,315.14,351.55Z" transform="translate(-62.26 -46.66)"/><path class="cls-43" d="M308.4,351.92a1.37,1.37,0,0,0,0,.19,3.51,3.51,0,0,0,5-3.2,1.11,1.11,0,0,0,0-.19,3.51,3.51,0,0,0-5,3.2Z" transform="translate(-62.26 -46.66)"/><polygon class="cls-13" points="251.02 314.92 247.7 314.92 246.97 307.47 251.75 307.47 251.02 314.92"/><path class="cls-33" d="M310.24,428.42H313a4.57,4.57,0,0,0,2.5,2.56l1,.33h-9.78l1-.33A4.61,4.61,0,0,0,310.24,428.42Z" transform="translate(-62.26 -46.66)"/><path class="cls-41" d="M243.76,384.58H255a.83.83,0,0,1,.83.83v.69a0,0,0,0,1,0,0H242.93a0,0,0,0,1,0,0v-.69A.83.83,0,0,1,243.76,384.58Z"/><path class="cls-33" d="M318.86,433.45H304.39v-.9a.48.48,0,0,1,.47-.48h13.52a.48.48,0,0,1,.48.48Z" transform="translate(-62.26 -46.66)"/><path class="cls-44" d="M312.33,134a7.44,7.44,0,0,0,4.76,2.43c2.2.18,5-1.12,5.61-3.4-1.39-.09-1.29-2-1.34-3a24.66,24.66,0,0,1,.05-2.92c0-.66.08-1.09.08-1.09l-8.26-5.26a40.84,40.84,0,0,1,.57,7.56c0,1.73,0,4.52-2.47,4.42A8.73,8.73,0,0,0,312.33,134Z" transform="translate(-62.26 -46.66)"/><path class="cls-45" d="M316.41,125.27a18.41,18.41,0,0,0,4.95,4.77,24.66,24.66,0,0,1,.05-2.92Z" transform="translate(-62.26 -46.66)"/><path class="cls-44" d="M327.94,114.72s1.15,12-3.24,14.7c-2,1.2-8.44-4.28-8.44-4.28s-4.23-3.66-3.51-7.89C314.12,109.24,326.7,106.76,327.94,114.72Z" transform="translate(-62.26 -46.66)"/><path class="cls-46" d="M330.06,110.15c-.12-.08-1.14.69-4.55-2a8,8,0,0,0-6.67-.94,4.67,4.67,0,0,0-3.25,2.63,3.72,3.72,0,0,0-3.52,1.56c-3.45,4.39,1.07,14.42,1.66,14.57s-.74-6.57,2.07-6.49c1.68.05,2.2,2.94,2.47,2.67s0-3.61.25-4.35a1.17,1.17,0,0,1,1.07-.48c1.3.17,1-2,2.11-2.35a10.6,10.6,0,0,1,4.16.22C331.36,116.65,332,111.47,330.06,110.15Z" transform="translate(-62.26 -46.66)"/><path class="cls-45" d="M315.57,120.55c.23-.11.62-.14.9.46s0,.56,0,.93.29.35.39.67,0,1.08-.68.94-.81-1.15-.89-1.45S315.08,120.77,315.57,120.55Z" transform="translate(-62.26 -46.66)"/><path class="cls-47" d="M306.18,172.12s13.32,1.51,16.39,1.58,2.92-1.54,2.92-1.54c.15-3.38.72-11.33,1.36-14,.59-2.52.85-3.45,1.37-5.84,1.15-5.31,1.1-6.33,2.31-12.89l-8-6.4a4.19,4.19,0,0,1-4.16,2.49c-4.46.06-5.84-3.06-5.84-3.06l-10.86,7.2-1,17.53,4.07,13.42" transform="translate(-62.26 -46.66)"/><path class="cls-48" d="M343,217a28.07,28.07,0,0,1-.77,3.43c-.34.88-3.21.07-3.4-.5s.9-4.72.9-4.72" transform="translate(-62.26 -46.66)"/><path class="cls-49" d="M337.8,220.67c-.25.94-.57,2.75-.57,2.75l2.87,1.25.48-.44a5.36,5.36,0,0,0,1.59,1.27,12.07,12.07,0,0,0,2.78.77c2.5.27,4.35-.2,4.5-.55.62-1.45-2.71-1.84-3.37-2a4.42,4.42,0,0,1-3.15-3.16c-.14-.76,0-.89-.38-.87a1,1,0,0,0-.72.34,1.81,1.81,0,0,1-2,.47,2.2,2.2,0,0,1-1-.84A1.22,1.22,0,0,0,337.8,220.67Z" transform="translate(-62.26 -46.66)"/><path class="cls-46" d="M330.28,183.54c4.49.88,9.92,1.54,14.45.94-.63,1.82-2,3.56-2.58,6.12-1.95,8.45-2.63,19.8-3.13,26.83,0,0,.94,1.8,4,.43,4.49-11.1,12.34-33.6,12.27-38.48-.09-6.22-15.6-7.72-27-9.25" transform="translate(-62.26 -46.66)"/><g class="cls-50"><path class="cls-51" d="M310.47,171.1c-3.58,2.61,19.81,12.44,19.81,12.44a38.57,38.57,0,0,0,7.66.73,5.47,5.47,0,0,0,.57-1.45c.14-.68.07-1.38.19-2.06a4.8,4.8,0,0,1,2.33-3.15,10.4,10.4,0,0,1,3.82-1.24,51.25,51.25,0,0,1,8.69-.15c-7-5.19-20.7-4-27.4-4.44C324.86,173.89,311,170.73,310.47,171.1Z" transform="translate(-62.26 -46.66)"/></g><g class="cls-52"><path class="cls-53" d="M341,219.37c-.1.54-.24,1.22-.38,1.77h.13c.43,0,.24.11.38.87a4.44,4.44,0,0,0,3.15,3.16c.66.17,4,.56,3.37,2-.15.35-2,.82-4.5.55a12.07,12.07,0,0,1-2.78-.77,5.36,5.36,0,0,1-1.59-1.27l-.48.44-2.87-1.25s.32-1.81.57-2.75a1.25,1.25,0,0,1,1-1,14.44,14.44,0,0,1,.35-2.06,1.52,1.52,0,0,1-.11-.16c.5-7,1.18-18.37,3.13-26.83a15.94,15.94,0,0,1,1.49-3.75,18.87,18.87,0,0,0,1.09-2.36,35.18,35.18,0,0,1-6.68.12c0,.71-.05,1.46-.08,2.24-.45,10-2.11,24.92-1.87,36.76a2.5,2.5,0,0,1-.55.32c0,.54,0,1.19-.07,1.74l.13,0c.41-.1.25.07.53.79a4.39,4.39,0,0,0,3.65,2.56c.68.06,4-.13,3.66,1.4-.09.37-1.82,1.15-4.34,1.32a12,12,0,0,1-2.87-.27,5.31,5.31,0,0,1-1.79-1l-.39.52-3-.74s0-1.83.08-2.81a1.24,1.24,0,0,1,.78-1.17h0a16,16,0,0,1,0-2.23c-.28-.09-.56-.19-.86-.32-.75-8.14-5.26-26.52-3.05-36.85a15.79,15.79,0,0,1,.64-2.26c-8.44,1.12-15.71,2.17-23.38-.37a3.87,3.87,0,0,1-1.82-1.19h51.28c-.24,1.12-.57,2.41-1,3.82-2.49,9-7.49,23-10.75,31Z" transform="translate(-62.26 -46.66)"/></g><path class="cls-48" d="M335.55,222.92a26.76,26.76,0,0,1-.16,3.51c-.18.92-3.15.63-3.43.1s.07-4.81.07-4.81" transform="translate(-62.26 -46.66)"/><path class="cls-49" d="M331.1,227.42c-.08,1-.08,2.81-.08,2.81l3,.73.39-.52a5.31,5.31,0,0,0,1.79,1,12.59,12.59,0,0,0,2.87.28c2.51-.17,4.25-1,4.34-1.32.36-1.54-3-1.35-3.67-1.4a4.41,4.41,0,0,1-3.64-2.57c-.28-.72-.12-.89-.53-.79a1,1,0,0,0-.65.46,1.82,1.82,0,0,1-1.93.82,2.16,2.16,0,0,1-1.15-.66A1.25,1.25,0,0,0,331.1,227.42Z" transform="translate(-62.26 -46.66)"/><path class="cls-46" d="M302.67,170.58a18.19,18.19,0,0,0-1.31,5.38,10,10,0,0,0,.63,4.7,6.48,6.48,0,0,0,3.79,3.73,27.91,27.91,0,0,0,6.84,1.28,67.5,67.5,0,0,0,13.91-.81l2.08-.28c-3.58,9.66,1.6,30.34,2.41,39.11,3.24,1.44,5.08-.09,5.08-.09-.37-17.85,3.61-42.78,1.2-47-1.46-2.59-18.93-6-19.28-6" transform="translate(-62.26 -46.66)"/><path class="cls-47" d="M339.41,166.06c-4.65-6.71-7.14-12-11.19-19.08l-5.65-14,2.28.14a17.14,17.14,0,0,1,4.7.89A9.82,9.82,0,0,1,335,138.4c.94,1.88,1.51,3.93,2.3,5.87.89,2.17,1.83,4.32,2.77,6.46,1.88,4.26,3.81,8.5,5.39,12.87" transform="translate(-62.26 -46.66)"/><polygon class="cls-54" points="266.74 101.7 267.5 97.17 273.07 109.37 271.22 109.82 266.74 101.7"/><path d="M301.67,139.4c-.76,10.93-.72,22.6,1.74,33.34.06.3.58.24.54-.08-.57-5.54-1.43-11-1.73-16.58a157.3,157.3,0,0,1,0-16.68c0-.37-.55-.36-.57,0Z" transform="translate(-62.26 -46.66)"/><rect class="cls-55" x="246.96" y="125.16" width="43.04" height="1.55"/><path class="cls-55" d="M359.94,173.37H325.49l6.17-20.14a2.66,2.66,0,0,1,2.54-1.87h30.17a1.72,1.72,0,0,1,1.64,2.22Z" transform="translate(-62.26 -46.66)"/><path class="cls-56" d="M360.37,173.37H326.44l6.18-20.14a2.64,2.64,0,0,1,2.53-1.87h30.17a1.72,1.72,0,0,1,1.64,2.22L361,172.87A.7.7,0,0,1,360.37,173.37Z" transform="translate(-62.26 -46.66)"/><g class="cls-52"><path class="cls-57" d="M306.71,143c1.77,8,2.51,17.28,3,23,6.66.49,8.53,3.05,14.62,5.76,0,0,4.82-.8,5.32,1,.29,1-5.63,1.88-5.63,1.88-5.65,0-19.35-2.62-20.35-2.9s-5.16-20.7-5.27-31a6.44,6.44,0,0,1,.94-4.18,5.51,5.51,0,0,1,1.84-1.36,25.65,25.65,0,0,1,11.38-2.87" transform="translate(-62.26 -46.66)"/></g><path class="cls-48" d="M323.5,173.06a3.6,3.6,0,0,1,3-.94,23.84,23.84,0,0,1,2.38.19c.36.05.77.14.81.53s-1.75,0-2.68.27a50.63,50.63,0,0,0,5.51.15,1.52,1.52,0,0,1,.64.06.51.51,0,0,1,.35.48.62.62,0,0,1-.25.42,3.65,3.65,0,0,1-1.89.77,14.67,14.67,0,0,1-8.38-.74" transform="translate(-62.26 -46.66)"/><path class="cls-47" d="M306.89,143.05c.15,8.58,1.37,16.36,1.2,24.94,6.66.49,10,1.78,16.14,4.5a3.24,3.24,0,0,1-.2,2.23c-.47.17-19.91-.65-21.51-2.13-1.44-1.32-4-21.47-4.11-31.75a6.44,6.44,0,0,1,.94-4.18,5.51,5.51,0,0,1,1.84-1.36,25.65,25.65,0,0,1,11.38-2.87" transform="translate(-62.26 -46.66)"/><path class="cls-11" d="M344.73,161.84a3.6,3.6,0,1,0,3.6-3.59A3.6,3.6,0,0,0,344.73,161.84Z" transform="translate(-62.26 -46.66)"/><g class="cls-58"><path class="cls-59" d="M336.73,63.46l1.31-.09a.48.48,0,0,1,.07.95h0l-1.25.09h0a.48.48,0,0,1-.07-1Z" transform="translate(-62.26 -46.66)"/><path class="cls-59" d="M340,63.38a25.71,25.71,0,0,1,2.63.25.45.45,0,0,1,.39.52.46.46,0,0,1-.52.39c-.84-.11-1.69-.19-2.54-.22a.47.47,0,0,1,0-.94Z" transform="translate(-62.26 -46.66)"/><path class="cls-59" d="M344.61,64c.86.18,1.71.39,2.56.64a.45.45,0,1,1-.26.86c-.82-.24-1.65-.44-2.48-.61a.45.45,0,1,1,.18-.89Z" transform="translate(-62.26 -46.66)"/><path class="cls-59" d="M349,65.24c.83.3,1.64.65,2.43,1a.44.44,0,0,1,.21.58.44.44,0,0,1-.58.2c-.77-.36-1.56-.68-2.36-1a.43.43,0,0,1-.26-.56.43.43,0,0,1,.56-.26Z" transform="translate(-62.26 -46.66)"/><path class="cls-59" d="M353.23,67.19a24.61,24.61,0,0,1,2.21,1.44.42.42,0,0,1,.09.59.41.41,0,0,1-.58.08,21.69,21.69,0,0,0-2.14-1.38.41.41,0,0,1-.16-.58.43.43,0,0,1,.58-.16Z" transform="translate(-62.26 -46.66)"/><path class="cls-59" d="M357,69.9a16,16,0,0,1,1.81,2,.41.41,0,0,1-.07.56.4.4,0,0,1-.56-.07,14.33,14.33,0,0,0-1.73-1.84.41.41,0,1,1,.55-.61Z" transform="translate(-62.26 -46.66)"/><path class="cls-59" d="M359.9,73.53a11.88,11.88,0,0,1,1,2.48.39.39,0,0,1-.26.48.39.39,0,0,1-.48-.27,10.79,10.79,0,0,0-1-2.3.4.4,0,1,1,.69-.39Z" transform="translate(-62.26 -46.66)"/><path class="cls-59" d="M361.28,78a11.46,11.46,0,0,1-.08,2.68.37.37,0,0,1-.42.31.37.37,0,0,1-.31-.42,10.46,10.46,0,0,0,.06-2.5.38.38,0,1,1,.75-.08Z" transform="translate(-62.26 -46.66)"/><path class="cls-59" d="M360.76,82.63a16.93,16.93,0,0,1-1,2.47.35.35,0,0,1-.47.16.36.36,0,0,1-.17-.47,16,16,0,0,0,.93-2.37.36.36,0,0,1,.69.21Z" transform="translate(-62.26 -46.66)"/><path class="cls-59" d="M358.81,86.83A19.21,19.21,0,0,1,357.22,89a.34.34,0,0,1-.51-.44,17.73,17.73,0,0,0,1.51-2.05.34.34,0,0,1,.48-.11.35.35,0,0,1,.11.48Z" transform="translate(-62.26 -46.66)"/><path class="cls-59" d="M355.84,90.38A19.36,19.36,0,0,1,353.77,92a.32.32,0,0,1-.45-.09.32.32,0,0,1,.08-.44,17,17,0,0,0,2-1.6.33.33,0,1,1,.45.48Z" transform="translate(-62.26 -46.66)"/><path class="cls-59" d="M352.06,93a17.41,17.41,0,0,1-2.43,1,.31.31,0,0,1-.39-.19.31.31,0,0,1,.19-.39,16.24,16.24,0,0,0,2.34-1,.32.32,0,0,1,.29.56Z" transform="translate(-62.26 -46.66)"/><path class="cls-59" d="M347.72,94.6a13,13,0,0,1-2.64.29.28.28,0,0,1-.29-.28.31.31,0,0,1,.29-.3,11.86,11.86,0,0,0,2.51-.29.3.3,0,0,1,.36.23.3.3,0,0,1-.23.35Z" transform="translate(-62.26 -46.66)"/><path class="cls-59" d="M343.08,94.68a6.08,6.08,0,0,1-2.45-1.12.27.27,0,0,1-.05-.39.27.27,0,0,1,.38,0,5.7,5.7,0,0,0,2.24,1,.29.29,0,0,1-.12.56Z" transform="translate(-62.26 -46.66)"/><path class="cls-59" d="M339.27,92a7.79,7.79,0,0,1-1-2.5.28.28,0,0,1,.21-.31.25.25,0,0,1,.3.2h0a7.26,7.26,0,0,0,.92,2.31.27.27,0,0,1-.09.37.26.26,0,0,1-.37-.08Z" transform="translate(-62.26 -46.66)"/><path class="cls-59" d="M338.3,87.5a6,6,0,0,1,1.14-2.44.25.25,0,0,1,.34,0,.24.24,0,0,1,.05.34,5.27,5.27,0,0,0-1,2.24.25.25,0,1,1-.5-.1Z" transform="translate(-62.26 -46.66)"/><path class="cls-59" d="M340.84,83.64a11.88,11.88,0,0,1,2.24-1.41.23.23,0,0,1,.31.1.24.24,0,0,1-.11.31A11.92,11.92,0,0,0,341.14,84a.23.23,0,0,1-.33,0,.24.24,0,0,1,0-.33Z" transform="translate(-62.26 -46.66)"/><path class="cls-59" d="M344.91,81.47a17.27,17.27,0,0,1,2.54-.67.21.21,0,0,1,.25.16.22.22,0,0,1-.17.25,17.85,17.85,0,0,0-2.48.68.22.22,0,1,1-.14-.42Z" transform="translate(-62.26 -46.66)"/><path class="cls-59" d="M349.4,80.52a20.79,20.79,0,0,1,2.62-.09.2.2,0,0,1,0,.39,22,22,0,0,0-2.57.11.21.21,0,0,1-.23-.19.2.2,0,0,1,.18-.22Z" transform="translate(-62.26 -46.66)"/><path class="cls-59" d="M354,80.57a22.36,22.36,0,0,1,2.57.48.18.18,0,0,1,.14.22.18.18,0,0,1-.22.13,21.77,21.77,0,0,0-2.54-.45.18.18,0,0,1-.16-.21.19.19,0,0,1,.21-.17Z" transform="translate(-62.26 -46.66)"/><path class="cls-59" d="M358.44,81.62a18.88,18.88,0,0,1,2.39,1.06.18.18,0,0,1,.07.23.16.16,0,0,1-.22.07,18.32,18.32,0,0,0-2.36-1,.17.17,0,0,1,.11-.33Z" transform="translate(-62.26 -46.66)"/><path class="cls-59" d="M362.52,83.7a16.84,16.84,0,0,1,2,1.64.15.15,0,0,1-.2.22,18.19,18.19,0,0,0-2-1.6.15.15,0,0,1,0-.22.16.16,0,0,1,.22,0Z" transform="translate(-62.26 -46.66)"/><path class="cls-59" d="M365.91,86.76a17.61,17.61,0,0,1,1.54,2.12.14.14,0,0,1,0,.19.14.14,0,0,1-.19,0A16.92,16.92,0,0,0,365.7,87a.14.14,0,1,1,.21-.19Z" transform="translate(-62.26 -46.66)"/><path class="cls-59" d="M368.39,90.6a20.09,20.09,0,0,1,1,2.42.12.12,0,0,1-.07.16.12.12,0,0,1-.15-.08,21.5,21.5,0,0,0-1-2.39.13.13,0,0,1,.06-.17.13.13,0,0,1,.17.06Z" transform="translate(-62.26 -46.66)"/><path class="cls-59" d="M369.91,94.91a18.43,18.43,0,0,1,.46,2.57.11.11,0,0,1-.1.12.12.12,0,0,1-.11-.1A22.19,22.19,0,0,0,369.7,95a.11.11,0,1,1,.21,0Z" transform="translate(-62.26 -46.66)"/><path class="cls-59" d="M370.47,99.44a14.25,14.25,0,0,1-.27,2.6.09.09,0,0,1-.18,0,14.61,14.61,0,0,0,.25-2.56.09.09,0,0,1,.1-.1.1.1,0,0,1,.1.1Z" transform="translate(-62.26 -46.66)"/><path class="cls-59" d="M369.68,103.93a12.75,12.75,0,0,1-1.14,2.35.08.08,0,1,1-.14-.08,12.75,12.75,0,0,0,1.11-2.33.09.09,0,0,1,.12-.05.08.08,0,0,1,.05.11Z" transform="translate(-62.26 -46.66)"/><path class="cls-59" d="M367.4,107.87a16.07,16.07,0,0,1-1.83,1.86.07.07,0,0,1-.1,0,.06.06,0,0,1,0-.09,16.54,16.54,0,0,0,1.8-1.85.08.08,0,0,1,.11,0,.08.08,0,0,1,0,.11Z" transform="translate(-62.26 -46.66)"/><path class="cls-59" d="M364,110.93a23.26,23.26,0,0,1-2.22,1.37.05.05,0,0,1-.08,0,.08.08,0,0,1,0-.08,20.73,20.73,0,0,0,2.2-1.37.06.06,0,0,1,.08.1Z" transform="translate(-62.26 -46.66)"/><path class="cls-59" d="M360.06,113.18q-1.19.54-2.4,1a0,0,0,0,1-.06,0,0,0,0,0,1,0-.06c.81-.31,1.61-.64,2.39-1a0,0,0,0,1,.07,0,.05.05,0,0,1,0,.07Z" transform="translate(-62.26 -46.66)"/><path class="cls-59" d="M355.81,114.8l-2.5.71s0,0,0,0,0,0,0,0l2.5-.72a0,0,0,0,1,0,0,.05.05,0,0,1,0,0Z" transform="translate(-62.26 -46.66)"/><path class="cls-59" d="M351.41,116l-2.56.49a0,0,0,0,1,0,0s0,0,0,0l2.55-.5s0,0,0,0,0,0,0,0Z" transform="translate(-62.26 -46.66)"/><path class="cls-59" d="M346.92,116.73l-2.58.29h0l2.58-.31h0a0,0,0,0,1,0,0Z" transform="translate(-62.26 -46.66)"/><polygon class="cls-59" points="280.13 70.51 278.85 70.57 280.13 70.51 280.13 70.51 280.13 70.51 280.13 70.51"/></g><path class="cls-60" d="M322,54.17c-.13-.08,8.1-.71,8.1-.71l5.5,10.61-8-5.1-8.33,4-17.59-2.18Z" transform="translate(-62.26 -46.66)"/><polygon class="cls-10" points="239.38 14.08 273.29 17.41 265.3 12.3 239.38 14.08"/><polygon class="cls-9" points="239.38 14.08 270.72 0 267.79 6.8 239.38 14.08 265.3 12.3 260.49 24.12 239.38 14.08"/></g></g></svg>